<svg width="200" height="200" viewBox="0 0 200 200" fill="none" xmlns="http://www.w3.org/2000/svg">
<path d="M44 69C44 64.5817 47.5817 61 52 61H148C152.418 61 156 64.5817 156 69V73C156 77.4183 152.418 81 148 81H52C47.5817 81 44 77.4183 44 73V69Z" fill="#24292F"/>
<mask id="path-4-inside-1_67_27" fill="white">
<path d="M64 75C64 70.5817 67.5817 67 72 67H128C132.418 67 136 70.5817 136 75V87H64V75Z"/>
</mask>
<path d="M64 75C64 70.5817 67.5817 67 72 67H128C132.418 67 136 70.5817 136 75V87H64V75Z" fill="#F6F6F6"/>
<path d="M137 86V87H135V86H137ZM65 86V87H63V86H65ZM65 82V84H63V82H65ZM137 82V84H135V82H137ZM65 78V80H63V78H65ZM137 78V80H135V78H137ZM65 76H63V75C63 74.8642 63.0048 74.7291 63.0107 74.5947C63.0124 74.5582 63.0145 74.5218 63.0166 74.4854C63.0291 74.2633 63.0508 74.0437 63.0791 73.8262L64.0674 73.9551L65.0596 74.084C65.0563 74.1088 65.0547 74.1343 65.0518 74.1592C65.0406 74.2524 65.0319 74.3461 65.0244 74.4404C65.0202 74.4944 65.0138 74.5483 65.0107 74.6025C65.0091 74.6311 65.0081 74.6598 65.0068 74.6885C65.0023 74.7917 65 74.8956 65 75V76ZM137 76H135V75C135 74.8955 134.997 74.7917 134.992 74.6885C134.991 74.6598 134.99 74.6311 134.988 74.6025C134.985 74.5483 134.98 74.4943 134.976 74.4404C134.968 74.3461 134.958 74.2524 134.947 74.1592C134.944 74.1343 134.944 74.1087 134.94 74.084L135.933 73.9551L136.921 73.8262C136.949 74.0437 136.971 74.2633 136.983 74.4854C136.993 74.6558 137 74.8273 137 75V76ZM65.6523 70.1299L66.4453 70.7393C66.4377 70.7492 66.4305 70.7595 66.4229 70.7695C66.3443 70.8729 66.2681 70.9782 66.1953 71.0859L66.1797 71.1094C66.17 71.1239 66.161 71.1388 66.1514 71.1533C66.0906 71.2456 66.0321 71.3394 65.9756 71.4346C65.8262 71.6863 65.6925 71.9482 65.5752 72.2188C65.5636 72.2455 65.5513 72.2719 65.54 72.2988C65.5371 72.306 65.5342 72.3132 65.5312 72.3203L64.6074 71.9375L63.6846 71.5547C63.6871 71.5486 63.6889 71.5422 63.6914 71.5361C63.9861 70.8301 64.368 70.1701 64.8232 69.5693C64.8356 69.5531 64.8489 69.5376 64.8613 69.5215L65.6523 70.1299ZM135.176 69.5693C135.631 70.1703 136.014 70.8299 136.309 71.5361C136.311 71.5422 136.313 71.5486 136.315 71.5547L135.393 71.9375L134.469 72.3203C134.466 72.313 134.462 72.3061 134.459 72.2988C134.448 72.2719 134.435 72.2455 134.424 72.2188C134.306 71.9481 134.173 71.6863 134.023 71.4346C133.967 71.3394 133.908 71.2456 133.848 71.1533C133.836 71.1358 133.825 71.118 133.813 71.1006C133.738 70.9878 133.658 70.8776 133.576 70.7695C133.569 70.7597 133.562 70.7491 133.555 70.7393L134.348 70.1299L135.138 69.5215C135.15 69.5376 135.163 69.5531 135.176 69.5693ZM68.9375 67.6074L69.3203 68.5312C69.3132 68.5342 69.306 68.5371 69.2988 68.54C69.2719 68.5513 69.2455 68.5636 69.2188 68.5752C69.143 68.608 69.0675 68.6413 68.9932 68.6768C68.9799 68.6831 68.9664 68.6889 68.9531 68.6953C68.8585 68.7411 68.765 68.789 68.6729 68.8389C68.6621 68.8447 68.6514 68.8506 68.6406 68.8564C68.571 68.8946 68.5028 68.9351 68.4346 68.9756C68.3394 69.0321 68.2456 69.0906 68.1533 69.1514C68.1388 69.161 68.1239 69.17 68.1094 69.1797L68.0859 69.1953C67.9782 69.2681 67.8729 69.3443 67.7695 69.4229C67.7595 69.4305 67.7492 69.4377 67.7393 69.4453L67.1299 68.6523L66.5215 67.8613C66.5376 67.8489 66.5531 67.8356 66.5693 67.8232C67.1701 67.368 67.8301 66.9861 68.5361 66.6914C68.5422 66.6889 68.5486 66.6871 68.5547 66.6846L68.9375 67.6074ZM131.463 66.6914C132.169 66.986 132.829 67.368 133.43 67.8232C133.446 67.8356 133.461 67.8489 133.478 67.8613L132.87 68.6523L132.261 69.4453C132.251 69.4375 132.24 69.4306 132.229 69.4229C132.121 69.3408 132.011 69.2614 131.898 69.1855C131.881 69.1739 131.863 69.1629 131.846 69.1514C131.753 69.0906 131.66 69.032 131.564 68.9756C131.396 68.8755 131.223 68.7812 131.046 68.6953C131.033 68.6889 131.019 68.6831 131.006 68.6768C130.931 68.6413 130.856 68.608 130.78 68.5752C130.754 68.5636 130.727 68.5513 130.7 68.54C130.693 68.5372 130.687 68.5341 130.68 68.5312L131.062 67.6074L131.444 66.6846C131.45 66.6871 131.457 66.6889 131.463 66.6914ZM72 68C71.8956 68 71.7917 68.0023 71.6885 68.0068C71.6598 68.0081 71.6311 68.0091 71.6025 68.0107C71.5512 68.0136 71.5002 68.0185 71.4492 68.0225C71.3519 68.03 71.2553 68.0402 71.1592 68.0518C71.1343 68.0547 71.1088 68.0563 71.084 68.0596L70.9551 67.0674L70.8262 66.0791C70.9064 66.0687 70.9866 66.0572 71.0674 66.0488C71.3743 66.0172 71.6853 66 72 66V68ZM128 66C128.314 66 128.625 66.0173 128.932 66.0488C129.012 66.0571 129.093 66.0687 129.173 66.0791L129.045 67.0674L128.916 68.0596C128.891 68.0563 128.865 68.0548 128.84 68.0518C128.744 68.0403 128.647 68.03 128.55 68.0225C128.499 68.0185 128.448 68.0136 128.396 68.0107C128.368 68.0091 128.339 68.0081 128.311 68.0068C128.285 68.0057 128.259 68.0048 128.232 68.0039L128 68H127V66H128ZM73 66V68H72V66H73ZM77 66V68H75V66H77ZM81 66V68H79V66H81ZM85 66V68H83V66H85ZM89 66V68H87V66H89ZM93 66V68H91V66H93ZM97 66V68H95V66H97ZM101 66V68H99V66H101ZM105 66V68H103V66H105ZM109 66V68H107V66H109ZM113 66V68H111V66H113ZM117 66V68H115V66H117ZM121 66V68H119V66H121ZM125 66V68H123V66H125Z" fill="#24292F" mask="url(#path-4-inside-1_67_27)"/>
<mask id="path-6-inside-2_67_27" fill="white">
<path d="M64 87H136V107H64V87Z"/>
</mask>
<path d="M64 87H136V107H64V87Z" fill="#F6F6F6"/>
<path d="M64 87V86.5H63.5V87H64ZM136 87H136.5V86.5H136V87ZM64 87H63.5V88H64H64.5V87H64ZM64 90H63.5V92H64H64.5V90H64ZM64 94H63.5V96H64H64.5V94H64ZM64 98H63.5V100H64H64.5V98H64ZM64 102H63.5V104H64H64.5V102H64ZM64 106H63.5V107H64H64.5V106H64ZM136 107H136.5V106H136H135.5V107H136ZM136 104H136.5V102H136H135.5V104H136ZM136 100H136.5V98H136H135.5V100H136ZM136 96H136.5V94H136H135.5V96H136ZM136 92H136.5V90H136H135.5V92H136ZM136 88H136.5V87H136H135.5V88H136ZM136 87V86.5H135V87V87.5H136V87ZM133 87V86.5H131V87V87.5H133V87ZM129 87V86.5H127V87V87.5H129V87ZM125 87V86.5H123V87V87.5H125V87ZM121 87V86.5H119V87V87.5H121V87ZM117 87V86.5H115V87V87.5H117V87ZM113 87V86.5H111V87V87.5H113V87ZM109 87V86.5H107V87V87.5H109V87ZM105 87V86.5H103V87V87.5H105V87ZM101 87V86.5H99V87V87.5H101V87ZM97 87V86.5H95V87V87.5H97V87ZM93 87V86.5H91V87V87.5H93V87ZM89 87V86.5H87V87V87.5H89V87ZM85 87V86.5H83V87V87.5H85V87ZM81 87V86.5H79V87V87.5H81V87ZM77 87V86.5H75V87V87.5H77V87ZM73 87V86.5H71V87V87.5H73V87ZM69 87V86.5H67V87V87.5H69V87ZM65 87V86.5H64V87V87.5H65V87ZM64 87V86H63V87H64ZM136 87H137V86H136V87ZM64 87H63V88H64H65V87H64ZM64 90H63V92H64H65V90H64ZM64 94H63V96H64H65V94H64ZM64 98H63V100H64H65V98H64ZM64 102H63V104H64H65V102H64ZM64 106H63V107H64H65V106H64ZM136 107H137V106H136H135V107H136ZM136 104H137V102H136H135V104H136ZM136 100H137V98H136H135V100H136ZM136 96H137V94H136H135V96H136ZM136 92H137V90H136H135V92H136ZM136 88H137V87H136H135V88H136ZM136 87V86H135V87V88H136V87ZM133 87V86H131V87V88H133V87ZM129 87V86H127V87V88H129V87ZM125 87V86H123V87V88H125V87ZM121 87V86H119V87V88H121V87ZM117 87V86H115V87V88H117V87ZM113 87V86H111V87V88H113V87ZM109 87V86H107V87V88H109V87ZM105 87V86H103V87V88H105V87ZM101 87V86H99V87V88H101V87ZM97 87V86H95V87V88H97V87ZM93 87V86H91V87V88H93V87ZM89 87V86H87V87V88H89V87ZM85 87V86H83V87V88H85V87ZM81 87V86H79V87V88H81V87ZM77 87V86H75V87V88H77V87ZM73 87V86H71V87V88H73V87ZM69 87V86H67V87V88H69V87ZM65 87V86H64V87V88H65V87Z" fill="#24292F" mask="url(#path-6-inside-2_67_27)"/>
<mask id="path-8-inside-3_67_27" fill="white">
<path d="M64 107H136V127H64V107Z"/>
</mask>
<path d="M64 107H136V127H64V107Z" fill="#F6F6F6"/>
<path d="M64 107V106.5H63.5V107H64ZM136 107H136.5V106.5H136V107ZM64 107H63.5V108H64H64.5V107H64ZM64 110H63.5V112H64H64.5V110H64ZM64 114H63.5V116H64H64.5V114H64ZM64 118H63.5V120H64H64.5V118H64ZM64 122H63.5V124H64H64.5V122H64ZM64 126H63.5V127H64H64.5V126H64ZM136 127H136.5V126H136H135.5V127H136ZM136 124H136.5V122H136H135.5V124H136ZM136 120H136.5V118H136H135.5V120H136ZM136 116H136.5V114H136H135.5V116H136ZM136 112H136.5V110H136H135.5V112H136ZM136 108H136.5V107H136H135.5V108H136ZM136 107V106.5H135V107V107.5H136V107ZM133 107V106.5H131V107V107.5H133V107ZM129 107V106.5H127V107V107.5H129V107ZM125 107V106.5H123V107V107.5H125V107ZM121 107V106.5H119V107V107.5H121V107ZM117 107V106.5H115V107V107.5H117V107ZM113 107V106.5H111V107V107.5H113V107ZM109 107V106.5H107V107V107.5H109V107ZM105 107V106.5H103V107V107.5H105V107ZM101 107V106.5H99V107V107.5H101V107ZM97 107V106.5H95V107V107.5H97V107ZM93 107V106.5H91V107V107.5H93V107ZM89 107V106.5H87V107V107.5H89V107ZM85 107V106.5H83V107V107.5H85V107ZM81 107V106.5H79V107V107.5H81V107ZM77 107V106.5H75V107V107.5H77V107ZM73 107V106.5H71V107V107.5H73V107ZM69 107V106.5H67V107V107.5H69V107ZM65 107V106.5H64V107V107.5H65V107ZM64 107V106H63V107H64ZM136 107H137V106H136V107ZM64 107H63V108H64H65V107H64ZM64 110H63V112H64H65V110H64ZM64 114H63V116H64H65V114H64ZM64 118H63V120H64H65V118H64ZM64 122H63V124H64H65V122H64ZM64 126H63V127H64H65V126H64ZM136 127H137V126H136H135V127H136ZM136 124H137V122H136H135V124H136ZM136 120H137V118H136H135V120H136ZM136 116H137V114H136H135V116H136ZM136 112H137V110H136H135V112H136ZM136 108H137V107H136H135V108H136ZM136 107V106H135V107V108H136V107ZM133 107V106H131V107V108H133V107ZM129 107V106H127V107V108H129V107ZM125 107V106H123V107V108H125V107ZM121 107V106H119V107V108H121V107ZM117 107V106H115V107V108H117V107ZM113 107V106H111V107V108H113V107ZM109 107V106H107V107V108H109V107ZM105 107V106H103V107V108H105V107ZM101 107V106H99V107V108H101V107ZM97 107V106H95V107V108H97V107ZM93 107V106H91V107V108H93V107ZM89 107V106H87V107V108H89V107ZM85 107V106H83V107V108H85V107ZM81 107V106H79V107V108H81V107ZM77 107V106H75V107V108H77V107ZM73 107V106H71V107V108H73V107ZM69 107V106H67V107V108H69V107ZM65 107V106H64V107V108H65V107Z" fill="#24292F" mask="url(#path-8-inside-3_67_27)"/>
<mask id="path-10-inside-4_67_27" fill="white">
<path d="M64 127H136V147H64V127Z"/>
</mask>
<path d="M64 127H136V147H64V127Z" fill="#F6F6F6"/>
<path d="M64 127V126.5H63.5V127H64ZM136 127H136.5V126.5H136V127ZM64 127H63.5V128H64H64.5V127H64ZM64 130H63.5V132H64H64.5V130H64ZM64 134H63.5V136H64H64.5V134H64ZM64 138H63.5V140H64H64.5V138H64ZM64 142H63.5V144H64H64.5V142H64ZM64 146H63.5V147H64H64.5V146H64ZM136 147H136.5V146H136H135.5V147H136ZM136 144H136.5V142H136H135.5V144H136ZM136 140H136.5V138H136H135.5V140H136ZM136 136H136.5V134H136H135.5V136H136ZM136 132H136.5V130H136H135.5V132H136ZM136 128H136.5V127H136H135.5V128H136ZM136 127V126.5H135V127V127.5H136V127ZM133 127V126.5H131V127V127.5H133V127ZM129 127V126.5H127V127V127.5H129V127ZM125 127V126.5H123V127V127.5H125V127ZM121 127V126.5H119V127V127.5H121V127ZM117 127V126.5H115V127V127.5H117V127ZM113 127V126.5H111V127V127.5H113V127ZM109 127V126.5H107V127V127.5H109V127ZM105 127V126.5H103V127V127.5H105V127ZM101 127V126.5H99V127V127.5H101V127ZM97 127V126.5H95V127V127.5H97V127ZM93 127V126.5H91V127V127.5H93V127ZM89 127V126.5H87V127V127.5H89V127ZM85 127V126.5H83V127V127.5H85V127ZM81 127V126.5H79V127V127.5H81V127ZM77 127V126.5H75V127V127.5H77V127ZM73 127V126.5H71V127V127.5H73V127ZM69 127V126.5H67V127V127.5H69V127ZM65 127V126.5H64V127V127.5H65V127ZM64 127V126H63V127H64ZM136 127H137V126H136V127ZM64 127H63V128H64H65V127H64ZM64 130H63V132H64H65V130H64ZM64 134H63V136H64H65V134H64ZM64 138H63V140H64H65V138H64ZM64 142H63V144H64H65V142H64ZM64 146H63V147H64H65V146H64ZM136 147H137V146H136H135V147H136ZM136 144H137V142H136H135V144H136ZM136 140H137V138H136H135V140H136ZM136 136H137V134H136H135V136H136ZM136 132H137V130H136H135V132H136ZM136 128H137V127H136H135V128H136ZM136 127V126H135V127V128H136V127ZM133 127V126H131V127V128H133V127ZM129 127V126H127V127V128H129V127ZM125 127V126H123V127V128H125V127ZM121 127V126H119V127V128H121V127ZM117 127V126H115V127V128H117V127ZM113 127V126H111V127V128H113V127ZM109 127V126H107V127V128H109V127ZM105 127V126H103V127V128H105V127ZM101 127V126H99V127V128H101V127ZM97 127V126H95V127V128H97V127ZM93 127V126H91V127V128H93V127ZM89 127V126H87V127V128H89V127ZM85 127V126H83V127V128H85V127ZM81 127V126H79V127V128H81V127ZM77 127V126H75V127V128H77V127ZM73 127V126H71V127V128H73V127ZM69 127V126H67V127V128H69V127ZM65 127V126H64V127V128H65V127Z" fill="#24292F" mask="url(#path-10-inside-4_67_27)"/>
<mask id="path-12-inside-5_67_27" fill="white">
<path d="M64 147H136V159C136 163.418 132.418 167 128 167H72C67.5817 167 64 163.418 64 159V147Z"/>
</mask>
<path d="M64 147H136V159C136 163.418 132.418 167 128 167H72C67.5817 167 64 163.418 64 159V147Z" fill="#F6F6F6"/>
<path d="M64 147V146.5H63.5V147H64ZM136 147H136.5V146.5H136V147ZM64 147H63.5V148H64H64.5V147H64ZM64 150H63.5V152H64H64.5V150H64ZM64 154H63.5V156H64H64.5V154H64ZM64 158H63.5V159H64H64.5V158H64ZM64 159H63.5C63.5 159.376 63.5244 159.746 63.5718 160.11L64.0676 160.045L64.5634 159.98C64.5216 159.66 64.5 159.332 64.5 159H64ZM64.607 162.062L64.1452 162.254C64.4319 162.945 64.807 163.59 65.2563 164.175L65.6528 163.87L66.0493 163.566C65.6525 163.049 65.3216 162.48 65.0689 161.871L64.607 162.062ZM67.1297 165.347L66.8251 165.744C67.4098 166.193 68.0549 166.568 68.7462 166.855L68.9377 166.393L69.1292 165.931C68.5198 165.678 67.9506 165.347 67.4344 164.951L67.1297 165.347ZM70.9551 166.932L70.8905 167.428C71.2538 167.476 71.6242 167.5 72 167.5V167V166.5C71.6675 166.5 71.3404 166.478 71.0198 166.437L70.9551 166.932ZM72 167V167.5H73V167V166.5H72V167ZM75 167V167.5H77V167V166.5H75V167ZM79 167V167.5H81V167V166.5H79V167ZM83 167V167.5H85V167V166.5H83V167ZM87 167V167.5H89V167V166.5H87V167ZM91 167V167.5H93V167V166.5H91V167ZM95 167V167.5H97V167V166.5H95V167ZM99 167V167.5H101V167V166.5H99V167ZM103 167V167.5H105V167V166.5H103V167ZM107 167V167.5H109V167V166.5H107V167ZM111 167V167.5H113V167V166.5H111V167ZM115 167V167.5H117V167V166.5H115V167ZM119 167V167.5H121V167V166.5H119V167ZM123 167V167.5H125V167V166.5H123V167ZM127 167V167.5H128V167V166.5H127V167ZM128 167V167.5C128.376 167.5 128.746 167.476 129.11 167.428L129.045 166.932L128.98 166.437C128.66 166.478 128.332 166.5 128 166.5V167ZM131.062 166.393L131.254 166.855C131.945 166.568 132.59 166.193 133.175 165.744L132.87 165.347L132.566 164.951C132.049 165.347 131.48 165.678 130.871 165.931L131.062 166.393ZM134.347 163.87L134.744 164.175C135.193 163.59 135.568 162.945 135.855 162.254L135.393 162.062L134.931 161.871C134.678 162.48 134.347 163.049 133.951 163.566L134.347 163.87ZM135.932 160.045L136.428 160.11C136.476 159.746 136.5 159.376 136.5 159H136H135.5C135.5 159.332 135.478 159.66 135.437 159.98L135.932 160.045ZM136 159H136.5V158H136H135.5V159H136ZM136 156H136.5V154H136H135.5V156H136ZM136 152H136.5V150H136H135.5V152H136ZM136 148H136.5V147H136H135.5V148H136ZM136 147V146.5H135V147V147.5H136V147ZM133 147V146.5H131V147V147.5H133V147ZM129 147V146.5H127V147V147.5H129V147ZM125 147V146.5H123V147V147.5H125V147ZM121 147V146.5H119V147V147.5H121V147ZM117 147V146.5H115V147V147.5H117V147ZM113 147V146.5H111V147V147.5H113V147ZM109 147V146.5H107V147V147.5H109V147ZM105 147V146.5H103V147V147.5H105V147ZM101 147V146.5H99V147V147.5H101V147ZM97 147V146.5H95V147V147.5H97V147ZM93 147V146.5H91V147V147.5H93V147ZM89 147V146.5H87V147V147.5H89V147ZM85 147V146.5H83V147V147.5H85V147ZM81 147V146.5H79V147V147.5H81V147ZM77 147V146.5H75V147V147.5H77V147ZM73 147V146.5H71V147V147.5H73V147ZM69 147V146.5H67V147V147.5H69V147ZM65 147V146.5H64V147V147.5H65V147ZM64 147V146H63V147H64ZM136 147H137V146H136V147ZM64 147H63V148H64H65V147H64ZM64 150H63V152H64H65V150H64ZM64 154H63V156H64H65V154H64ZM64 158H63V159H64H65V158H64ZM64 159H63C63 159.398 63.0258 159.789 63.076 160.174L64.0676 160.045L65.0592 159.916C65.0202 159.616 65 159.311 65 159H64ZM64.607 162.062L63.6833 162.445C63.987 163.178 64.3842 163.861 64.8599 164.48L65.6528 163.87L66.4457 163.261C66.0753 162.779 65.7665 162.248 65.5308 161.679L64.607 162.062ZM67.1297 165.347L66.5204 166.14C67.1394 166.616 67.8224 167.013 68.5546 167.317L68.9377 166.393L69.3208 165.469C68.7522 165.233 68.2211 164.925 67.7391 164.554L67.1297 165.347ZM70.9551 166.932L70.8258 167.924C71.2105 167.974 71.6025 168 72 168V167V166C71.6892 166 71.3837 165.98 71.0845 165.941L70.9551 166.932ZM72 167V168H73V167V166H72V167ZM75 167V168H77V167V166H75V167ZM79 167V168H81V167V166H79V167ZM83 167V168H85V167V166H83V167ZM87 167V168H89V167V166H87V167ZM91 167V168H93V167V166H91V167ZM95 167V168H97V167V166H95V167ZM99 167V168H101V167V166H99V167ZM103 167V168H105V167V166H103V167ZM107 167V168H109V167V166H107V167ZM111 167V168H113V167V166H111V167ZM115 167V168H117V167V166H115V167ZM119 167V168H121V167V166H119V167ZM123 167V168H125V167V166H123V167ZM127 167V168H128V167V166H127V167ZM128 167V168C128.398 168 128.789 167.974 129.174 167.924L129.045 166.932L128.916 165.941C128.616 165.98 128.311 166 128 166V167ZM131.062 166.393L131.445 167.317C132.178 167.013 132.861 166.616 133.48 166.14L132.87 165.347L132.261 164.554C131.779 164.925 131.248 165.233 130.679 165.469L131.062 166.393ZM134.347 163.87L135.14 164.48C135.616 163.861 136.013 163.178 136.317 162.445L135.393 162.062L134.469 161.679C134.233 162.248 133.925 162.779 133.554 163.261L134.347 163.87ZM135.932 160.045L136.924 160.174C136.974 159.789 137 159.398 137 159H136H135C135 159.311 134.98 159.616 134.941 159.916L135.932 160.045ZM136 159H137V158H136H135V159H136ZM136 156H137V154H136H135V156H136ZM136 152H137V150H136H135V152H136ZM136 148H137V147H136H135V148H136ZM136 147V146H135V147V148H136V147ZM133 147V146H131V147V148H133V147ZM129 147V146H127V147V148H129V147ZM125 147V146H123V147V148H125V147ZM121 147V146H119V147V148H121V147ZM117 147V146H115V147V148H117V147ZM113 147V146H111V147V148H113V147ZM109 147V146H107V147V148H109V147ZM105 147V146H103V147V148H105V147ZM101 147V146H99V147V148H101V147ZM97 147V146H95V147V148H97V147ZM93 147V146H91V147V148H93V147ZM89 147V146H87V147V148H89V147ZM85 147V146H83V147V148H85V147ZM81 147V146H79V147V148H81V147ZM77 147V146H75V147V148H77V147ZM73 147V146H71V147V148H73V147ZM69 147V146H67V147V148H69V147ZM65 147V146H64V147V148H65V147Z" fill="#24292F" mask="url(#path-12-inside-5_67_27)"/>
</svg>
