<svg width="200" height="200" viewBox="0 0 200 200" fill="none" xmlns="http://www.w3.org/2000/svg">
<path d="M153.502 48.6665C155.779 48.6667 157.226 51.104 156.136 53.103L142.544 78.0317H132.329C131.777 78.032 131.329 78.4796 131.329 79.0317V91.2866C131.329 91.8388 131.777 92.2864 132.329 92.2866H134.772L114.45 129.561H105.5C104.948 129.561 104.5 130.009 104.5 130.561V138.61C104.5 139.162 104.948 139.61 105.5 139.61H108.972L103.381 149.865C102.244 151.95 99.2492 151.95 98.1123 149.865L79.707 116.106H92.7881C93.3403 116.106 93.7881 115.658 93.7881 115.106V112.292C93.7881 111.74 93.3403 111.293 92.7881 111.292H77.083L75.6016 108.575H90.3477C90.8998 108.575 91.3474 108.127 91.3477 107.575V103.614C91.3477 103.061 90.8999 102.614 90.3477 102.614H72.3516L45.3574 53.103C44.2677 51.1039 45.7153 48.6665 47.9922 48.6665H153.502Z" fill="#24292F" fill-opacity="0.4"/>
<rect x="83.1499" y="129.561" width="14.4453" height="10.049" rx="1" fill="#F6F6F6" style="mix-blend-mode:multiply"/>
<rect x="115.445" y="111.292" width="20.229" height="4.81393" rx="1" fill="#F6F6F6" style="mix-blend-mode:multiply"/>
<rect x="76.2339" y="47.6665" width="24.7817" height="4.23112" rx="1" fill="#F6F6F6"/>
<rect x="90.0015" y="50.7821" width="34.1909" height="4.23112" rx="1" fill="#F6F6F6"/>
<rect x="108.002" y="98.2124" width="13.5788" height="4.00109" rx="1" fill="#24292F"/>
<path d="M134.507 62C136.784 62.0001 138.231 64.4375 137.141 66.4365L128.813 81.7119H122.283C121.731 81.712 121.283 82.1597 121.283 82.7119V90.2803C121.283 90.8325 121.731 91.2802 122.283 91.2803H123.596L109.954 116.301H104.274C103.722 116.301 103.275 116.749 103.274 117.301V122.047C103.275 122.599 103.722 123.047 104.274 123.047H106.276L103.39 128.342C102.253 130.427 99.258 130.427 98.1211 128.342L83.876 102.214H93.4463C93.9985 102.214 94.4462 101.766 94.4463 101.214V99.2129C94.4463 98.6606 93.9986 98.213 93.4463 98.2129H81.8672C81.811 98.2129 81.7559 98.2176 81.7022 98.2266L64.3702 66.4365C63.2804 64.4376 64.7274 62.0005 67.004 62H134.507Z" fill="#24292F"/>
<rect x="82.5054" y="104.038" width="13.5788" height="3.23138" rx="1" fill="#F6F6F6"/>
<rect x="88.9434" y="116.301" width="9.69653" height="6.74549" rx="1" fill="#F6F6F6"/>
<rect x="110.622" y="104.038" width="13.5788" height="3.23138" rx="1" fill="#F6F6F6"/>
<rect x="71.1069" y="81.7116" width="13.8324" height="9.569" rx="1" fill="#F6F6F6"/>
</svg>
