<svg width="200" height="200" viewBox="0 0 200 200" fill="none" xmlns="http://www.w3.org/2000/svg">
<path d="M54.9901 81.3636V93H53.6491V81.3636H54.9901ZM57.446 93V84.2727H58.7869V93H57.446ZM58.1278 82.8182C57.8665 82.8182 57.6411 82.7292 57.4517 82.5511C57.2661 82.3731 57.1733 82.1591 57.1733 81.9091C57.1733 81.6591 57.2661 81.4451 57.4517 81.267C57.6411 81.089 57.8665 81 58.1278 81C58.3892 81 58.6127 81.089 58.7983 81.267C58.9877 81.4451 59.0824 81.6591 59.0824 81.9091C59.0824 82.1591 58.9877 82.3731 58.7983 82.5511C58.6127 82.7292 58.3892 82.8182 58.1278 82.8182ZM62.5838 87.75V93H61.2429V84.2727H62.5384V85.6364H62.652C62.8565 85.1932 63.1671 84.8371 63.5838 84.5682C64.0005 84.2955 64.5384 84.1591 65.1974 84.1591C65.7884 84.1591 66.3054 84.2803 66.7486 84.5227C67.1918 84.7614 67.5365 85.125 67.7827 85.6136C68.0289 86.0985 68.152 86.7121 68.152 87.4545V93H66.8111V87.5455C66.8111 86.8598 66.633 86.3258 66.277 85.9432C65.9209 85.5568 65.4323 85.3636 64.8111 85.3636C64.383 85.3636 64.0005 85.4564 63.6634 85.642C63.33 85.8277 63.0668 86.0985 62.8736 86.4545C62.6804 86.8106 62.5838 87.2424 62.5838 87.75ZM71.8523 89.8182L71.8295 88.1591H72.1023L75.9205 84.2727H77.5795L73.5114 88.3864H73.3977L71.8523 89.8182ZM70.6023 93V81.3636H71.9432V93H70.6023ZM76.1477 93L72.7386 88.6818L73.6932 87.75L77.8523 93H76.1477ZM80.2827 93.0909C80.0024 93.0909 79.7618 92.9905 79.5611 92.7898C79.3603 92.589 79.2599 92.3485 79.2599 92.0682C79.2599 91.7879 79.3603 91.5473 79.5611 91.3466C79.7618 91.1458 80.0024 91.0455 80.2827 91.0455C80.563 91.0455 80.8035 91.1458 81.0043 91.3466C81.205 91.5473 81.3054 91.7879 81.3054 92.0682C81.3054 92.2538 81.258 92.4242 81.1634 92.5795C81.0724 92.7348 80.9493 92.8598 80.794 92.9545C80.6425 93.0455 80.4721 93.0909 80.2827 93.0909ZM80.2827 86.6136C80.0024 86.6136 79.7618 86.5133 79.5611 86.3125C79.3603 86.1117 79.2599 85.8712 79.2599 85.5909C79.2599 85.3106 79.3603 85.0701 79.5611 84.8693C79.7618 84.6686 80.0024 84.5682 80.2827 84.5682C80.563 84.5682 80.8035 84.6686 81.0043 84.8693C81.205 85.0701 81.3054 85.3106 81.3054 85.5909C81.3054 85.7765 81.258 85.947 81.1634 86.1023C81.0724 86.2576 80.9493 86.3826 80.794 86.4773C80.6425 86.5682 80.4721 86.6136 80.2827 86.6136ZM87.0071 93.1818C86.2798 93.1818 85.6378 92.9981 85.081 92.6307C84.5241 92.2595 84.0885 91.7367 83.7741 91.0625C83.4598 90.3845 83.3026 89.5833 83.3026 88.6591C83.3026 87.7424 83.4598 86.947 83.7741 86.2727C84.0885 85.5985 84.526 85.0777 85.0866 84.7102C85.6473 84.3428 86.295 84.1591 87.0298 84.1591C87.598 84.1591 88.0469 84.2538 88.3764 84.4432C88.7098 84.6288 88.9635 84.8409 89.1378 85.0795C89.3158 85.3144 89.4541 85.5076 89.5526 85.6591H89.6662V81.3636H91.0071V93H89.7116V91.6591H89.5526C89.4541 91.8182 89.3139 92.0189 89.1321 92.2614C88.9503 92.5 88.6908 92.714 88.3537 92.9034C88.0166 93.089 87.5677 93.1818 87.0071 93.1818ZM87.1889 91.9773C87.7268 91.9773 88.1813 91.8371 88.5526 91.5568C88.9238 91.2727 89.206 90.8807 89.3991 90.3807C89.5923 89.8769 89.6889 89.2955 89.6889 88.6364C89.6889 87.9848 89.5942 87.4148 89.4048 86.9261C89.2154 86.4337 88.9351 86.0511 88.5639 85.7784C88.1927 85.5019 87.7344 85.3636 87.1889 85.3636C86.6207 85.3636 86.1473 85.5095 85.7685 85.8011C85.3935 86.089 85.1113 86.4811 84.9219 86.9773C84.7363 87.4697 84.6435 88.0227 84.6435 88.6364C84.6435 89.2576 84.7382 89.822 84.9276 90.3295C85.1207 90.8333 85.4048 91.2348 85.7798 91.5341C86.1586 91.8295 86.6283 91.9773 87.1889 91.9773ZM93.6491 93V84.2727H94.9901V93H93.6491ZM94.331 82.8182C94.0696 82.8182 93.8442 82.7292 93.6548 82.5511C93.4692 82.3731 93.3764 82.1591 93.3764 81.9091C93.3764 81.6591 93.4692 81.4451 93.6548 81.267C93.8442 81.089 94.0696 81 94.331 81C94.5923 81 94.8158 81.089 95.0014 81.267C95.1908 81.4451 95.2855 81.6591 95.2855 81.9091C95.2855 82.1591 95.1908 82.3731 95.0014 82.5511C94.8158 82.7292 94.5923 82.8182 94.331 82.8182ZM103.628 86.2273L102.423 86.5682C102.348 86.3674 102.236 86.1723 102.088 85.983C101.944 85.7898 101.747 85.6307 101.497 85.5057C101.247 85.3807 100.927 85.3182 100.537 85.3182C100.003 85.3182 99.5578 85.4413 99.2017 85.6875C98.8494 85.9299 98.6733 86.2386 98.6733 86.6136C98.6733 86.947 98.7945 87.2102 99.0369 87.4034C99.2794 87.5966 99.6581 87.7576 100.173 87.8864L101.469 88.2045C102.249 88.3939 102.83 88.6837 103.213 89.0739C103.596 89.4602 103.787 89.9583 103.787 90.5682C103.787 91.0682 103.643 91.5152 103.355 91.9091C103.071 92.303 102.673 92.6136 102.162 92.8409C101.651 93.0682 101.056 93.1818 100.378 93.1818C99.4877 93.1818 98.7509 92.9886 98.1676 92.6023C97.5843 92.2159 97.215 91.6515 97.0597 90.9091L98.3324 90.5909C98.4536 91.0606 98.6828 91.4129 99.0199 91.6477C99.3608 91.8826 99.8059 92 100.355 92C100.98 92 101.476 91.8674 101.844 91.6023C102.215 91.3333 102.401 91.0114 102.401 90.6364C102.401 90.3333 102.295 90.0795 102.082 89.875C101.87 89.6667 101.545 89.5114 101.105 89.4091L99.6506 89.0682C98.8513 88.8788 98.2642 88.5852 97.8892 88.1875C97.518 87.786 97.3324 87.2841 97.3324 86.6818C97.3324 86.1894 97.4706 85.7538 97.7472 85.375C98.0275 84.9962 98.4081 84.6989 98.8892 84.483C99.3741 84.267 99.9233 84.1591 100.537 84.1591C101.401 84.1591 102.079 84.3485 102.571 84.7273C103.067 85.1061 103.42 85.6061 103.628 86.2273ZM108.374 93.2045C107.821 93.2045 107.319 93.1004 106.868 92.892C106.417 92.6799 106.059 92.375 105.794 91.9773C105.529 91.5758 105.396 91.0909 105.396 90.5227C105.396 90.0227 105.495 89.6174 105.692 89.3068C105.889 88.9924 106.152 88.7462 106.482 88.5682C106.811 88.3902 107.175 88.2576 107.572 88.1705C107.974 88.0795 108.377 88.0076 108.783 87.9545C109.313 87.8864 109.743 87.8352 110.072 87.8011C110.406 87.7633 110.648 87.7008 110.8 87.6136C110.955 87.5265 111.033 87.375 111.033 87.1591V87.1136C111.033 86.553 110.879 86.1174 110.572 85.8068C110.269 85.4962 109.809 85.3409 109.192 85.3409C108.552 85.3409 108.05 85.4811 107.686 85.7614C107.322 86.0417 107.067 86.3409 106.919 86.6591L105.646 86.2045C105.874 85.6742 106.177 85.2614 106.555 84.9659C106.938 84.6667 107.355 84.4583 107.805 84.3409C108.26 84.2197 108.707 84.1591 109.146 84.1591C109.427 84.1591 109.749 84.1932 110.112 84.2614C110.48 84.3258 110.834 84.4602 111.175 84.6648C111.519 84.8693 111.805 85.178 112.033 85.5909C112.26 86.0038 112.374 86.5568 112.374 87.25V93H111.033V91.8182H110.964C110.874 92.0076 110.722 92.2102 110.51 92.4261C110.298 92.642 110.016 92.8258 109.663 92.9773C109.311 93.1288 108.881 93.2045 108.374 93.2045ZM108.578 92C109.108 92 109.555 91.8958 109.919 91.6875C110.286 91.4792 110.563 91.2102 110.749 90.8807C110.938 90.5511 111.033 90.2045 111.033 89.8409V88.6136C110.976 88.6818 110.851 88.7443 110.658 88.8011C110.468 88.8542 110.249 88.9015 109.999 88.9432C109.752 88.9811 109.512 89.0152 109.277 89.0455C109.046 89.072 108.858 89.0947 108.714 89.1136C108.366 89.1591 108.04 89.233 107.737 89.3352C107.438 89.4337 107.196 89.5833 107.01 89.7841C106.828 89.9811 106.737 90.25 106.737 90.5909C106.737 91.0568 106.91 91.4091 107.254 91.6477C107.603 91.8826 108.044 92 108.578 92ZM115.003 93V81.3636H116.344V85.6591H116.457C116.556 85.5076 116.692 85.3144 116.866 85.0795C117.045 84.8409 117.298 84.6288 117.628 84.4432C117.961 84.2538 118.412 84.1591 118.98 84.1591C119.715 84.1591 120.363 84.3428 120.923 84.7102C121.484 85.0777 121.921 85.5985 122.236 86.2727C122.55 86.947 122.707 87.7424 122.707 88.6591C122.707 89.5833 122.55 90.3845 122.236 91.0625C121.921 91.7367 121.486 92.2595 120.929 92.6307C120.372 92.9981 119.73 93.1818 119.003 93.1818C118.442 93.1818 117.993 93.089 117.656 92.9034C117.319 92.714 117.06 92.5 116.878 92.2614C116.696 92.0189 116.556 91.8182 116.457 91.6591H116.298V93H115.003ZM116.321 88.6364C116.321 89.2955 116.418 89.8769 116.611 90.3807C116.804 90.8807 117.086 91.2727 117.457 91.5568C117.829 91.8371 118.283 91.9773 118.821 91.9773C119.382 91.9773 119.849 91.8295 120.224 91.5341C120.603 91.2348 120.887 90.8333 121.077 90.3295C121.27 89.822 121.366 89.2576 121.366 88.6364C121.366 88.0227 121.272 87.4697 121.082 86.9773C120.897 86.4811 120.615 86.089 120.236 85.8011C119.861 85.5095 119.389 85.3636 118.821 85.3636C118.276 85.3636 117.817 85.5019 117.446 85.7784C117.075 86.0511 116.795 86.4337 116.605 86.9261C116.416 87.4148 116.321 87.9848 116.321 88.6364ZM126.099 81.3636V93H124.759V81.3636H126.099ZM132.214 93.1818C131.374 93.1818 130.648 92.9962 130.038 92.625C129.432 92.25 128.964 91.7273 128.635 91.0568C128.309 90.3826 128.146 89.5985 128.146 88.7045C128.146 87.8106 128.309 87.0227 128.635 86.3409C128.964 85.6553 129.423 85.1212 130.01 84.7386C130.601 84.3523 131.29 84.1591 132.078 84.1591C132.533 84.1591 132.982 84.2348 133.425 84.3864C133.868 84.5379 134.271 84.7841 134.635 85.125C134.999 85.4621 135.288 85.9091 135.504 86.4659C135.72 87.0227 135.828 87.7083 135.828 88.5227V89.0909H129.101V87.9318H134.464C134.464 87.4394 134.366 87 134.169 86.6136C133.976 86.2273 133.699 85.9223 133.339 85.6989C132.983 85.4754 132.563 85.3636 132.078 85.3636C131.544 85.3636 131.082 85.4962 130.692 85.7614C130.305 86.0227 130.008 86.3636 129.8 86.7841C129.591 87.2045 129.487 87.6553 129.487 88.1364V88.9091C129.487 89.5682 129.601 90.1269 129.828 90.5852C130.059 91.0398 130.379 91.3864 130.788 91.625C131.197 91.8598 131.673 91.9773 132.214 91.9773C132.567 91.9773 132.885 91.928 133.169 91.8295C133.457 91.7273 133.705 91.5758 133.913 91.375C134.122 91.1705 134.283 90.9167 134.396 90.6136L135.692 90.9773C135.555 91.4167 135.326 91.803 135.004 92.1364C134.682 92.4659 134.285 92.7235 133.811 92.9091C133.338 93.0909 132.805 93.1818 132.214 93.1818ZM141.163 93.1818C140.436 93.1818 139.794 92.9981 139.237 92.6307C138.68 92.2595 138.245 91.7367 137.93 91.0625C137.616 90.3845 137.459 89.5833 137.459 88.6591C137.459 87.7424 137.616 86.947 137.93 86.2727C138.245 85.5985 138.682 85.0777 139.243 84.7102C139.804 84.3428 140.451 84.1591 141.186 84.1591C141.754 84.1591 142.203 84.2538 142.533 84.4432C142.866 84.6288 143.12 84.8409 143.294 85.0795C143.472 85.3144 143.61 85.5076 143.709 85.6591H143.822V81.3636H145.163V93H143.868V91.6591H143.709C143.61 91.8182 143.47 92.0189 143.288 92.2614C143.107 92.5 142.847 92.714 142.51 92.9034C142.173 93.089 141.724 93.1818 141.163 93.1818ZM141.345 91.9773C141.883 91.9773 142.338 91.8371 142.709 91.5568C143.08 91.2727 143.362 90.8807 143.555 90.3807C143.749 89.8769 143.845 89.2955 143.845 88.6364C143.845 87.9848 143.75 87.4148 143.561 86.9261C143.372 86.4337 143.091 86.0511 142.72 85.7784C142.349 85.5019 141.891 85.3636 141.345 85.3636C140.777 85.3636 140.304 85.5095 139.925 85.8011C139.55 86.089 139.268 86.4811 139.078 86.9773C138.893 87.4697 138.8 88.0227 138.8 88.6364C138.8 89.2576 138.894 89.822 139.084 90.3295C139.277 90.8333 139.561 91.2348 139.936 91.5341C140.315 91.8295 140.785 91.9773 141.345 91.9773Z" fill="#24292F" fill-opacity="0.3"/>
<path d="M64.3026 105.364V117H62.9616V105.364H64.3026ZM66.7585 117V108.273H68.0994V117H66.7585ZM67.4403 106.818C67.179 106.818 66.9536 106.729 66.7642 106.551C66.5786 106.373 66.4858 106.159 66.4858 105.909C66.4858 105.659 66.5786 105.445 66.7642 105.267C66.9536 105.089 67.179 105 67.4403 105C67.7017 105 67.9252 105.089 68.1108 105.267C68.3002 105.445 68.3949 105.659 68.3949 105.909C68.3949 106.159 68.3002 106.373 68.1108 106.551C67.9252 106.729 67.7017 106.818 67.4403 106.818ZM71.8963 111.75V117H70.5554V108.273H71.8509V109.636H71.9645C72.169 109.193 72.4796 108.837 72.8963 108.568C73.313 108.295 73.8509 108.159 74.5099 108.159C75.1009 108.159 75.6179 108.28 76.0611 108.523C76.5043 108.761 76.849 109.125 77.0952 109.614C77.3414 110.098 77.4645 110.712 77.4645 111.455V117H76.1236V111.545C76.1236 110.86 75.9455 110.326 75.5895 109.943C75.2334 109.557 74.7448 109.364 74.1236 109.364C73.6955 109.364 73.313 109.456 72.9759 109.642C72.6425 109.828 72.3793 110.098 72.1861 110.455C71.9929 110.811 71.8963 111.242 71.8963 111.75ZM81.1648 113.818L81.142 112.159H81.4148L85.233 108.273H86.892L82.8239 112.386H82.7102L81.1648 113.818ZM79.9148 117V105.364H81.2557V117H79.9148ZM85.4602 117L82.0511 112.682L83.0057 111.75L87.1648 117H85.4602ZM89.5952 117.091C89.3149 117.091 89.0743 116.991 88.8736 116.79C88.6728 116.589 88.5724 116.348 88.5724 116.068C88.5724 115.788 88.6728 115.547 88.8736 115.347C89.0743 115.146 89.3149 115.045 89.5952 115.045C89.8755 115.045 90.116 115.146 90.3168 115.347C90.5175 115.547 90.6179 115.788 90.6179 116.068C90.6179 116.254 90.5705 116.424 90.4759 116.58C90.3849 116.735 90.2618 116.86 90.1065 116.955C89.955 117.045 89.7846 117.091 89.5952 117.091ZM89.5952 110.614C89.3149 110.614 89.0743 110.513 88.8736 110.312C88.6728 110.112 88.5724 109.871 88.5724 109.591C88.5724 109.311 88.6728 109.07 88.8736 108.869C89.0743 108.669 89.3149 108.568 89.5952 108.568C89.8755 108.568 90.116 108.669 90.3168 108.869C90.5175 109.07 90.6179 109.311 90.6179 109.591C90.6179 109.777 90.5705 109.947 90.4759 110.102C90.3849 110.258 90.2618 110.383 90.1065 110.477C89.955 110.568 89.7846 110.614 89.5952 110.614ZM95.5923 117.205C95.0393 117.205 94.5374 117.1 94.0866 116.892C93.6359 116.68 93.2779 116.375 93.0128 115.977C92.7476 115.576 92.6151 115.091 92.6151 114.523C92.6151 114.023 92.7135 113.617 92.9105 113.307C93.1075 112.992 93.3707 112.746 93.7003 112.568C94.0298 112.39 94.3935 112.258 94.7912 112.17C95.1927 112.08 95.5961 112.008 96.0014 111.955C96.5317 111.886 96.9616 111.835 97.2912 111.801C97.6245 111.763 97.867 111.701 98.0185 111.614C98.1738 111.527 98.2514 111.375 98.2514 111.159V111.114C98.2514 110.553 98.098 110.117 97.7912 109.807C97.4882 109.496 97.0279 109.341 96.4105 109.341C95.7704 109.341 95.2685 109.481 94.9048 109.761C94.5412 110.042 94.2855 110.341 94.1378 110.659L92.8651 110.205C93.0923 109.674 93.3954 109.261 93.7741 108.966C94.1567 108.667 94.5734 108.458 95.0241 108.341C95.4787 108.22 95.9257 108.159 96.3651 108.159C96.6454 108.159 96.9673 108.193 97.331 108.261C97.6984 108.326 98.0526 108.46 98.3935 108.665C98.7382 108.869 99.0241 109.178 99.2514 109.591C99.4787 110.004 99.5923 110.557 99.5923 111.25V117H98.2514V115.818H98.1832C98.0923 116.008 97.9408 116.21 97.7287 116.426C97.5166 116.642 97.2344 116.826 96.8821 116.977C96.5298 117.129 96.0999 117.205 95.5923 117.205ZM95.7969 116C96.3272 116 96.7741 115.896 97.1378 115.688C97.5052 115.479 97.7817 115.21 97.9673 114.881C98.1567 114.551 98.2514 114.205 98.2514 113.841V112.614C98.1946 112.682 98.0696 112.744 97.8764 112.801C97.687 112.854 97.4673 112.902 97.2173 112.943C96.9711 112.981 96.7306 113.015 96.4957 113.045C96.2647 113.072 96.0772 113.095 95.9332 113.114C95.5848 113.159 95.259 113.233 94.956 113.335C94.6567 113.434 94.4143 113.583 94.2287 113.784C94.0469 113.981 93.956 114.25 93.956 114.591C93.956 115.057 94.1283 115.409 94.473 115.648C94.8215 115.883 95.2628 116 95.7969 116ZM105.585 117.182C104.767 117.182 104.063 116.989 103.472 116.602C102.881 116.216 102.426 115.684 102.108 115.006C101.79 114.328 101.631 113.553 101.631 112.682C101.631 111.795 101.794 111.013 102.119 110.335C102.449 109.653 102.907 109.121 103.494 108.739C104.085 108.352 104.775 108.159 105.562 108.159C106.176 108.159 106.729 108.273 107.222 108.5C107.714 108.727 108.117 109.045 108.432 109.455C108.746 109.864 108.941 110.341 109.017 110.886H107.676C107.574 110.489 107.347 110.136 106.994 109.83C106.646 109.519 106.176 109.364 105.585 109.364C105.063 109.364 104.604 109.5 104.21 109.773C103.82 110.042 103.515 110.422 103.295 110.915C103.08 111.403 102.972 111.977 102.972 112.636C102.972 113.311 103.078 113.898 103.29 114.398C103.506 114.898 103.809 115.286 104.199 115.562C104.593 115.839 105.055 115.977 105.585 115.977C105.934 115.977 106.25 115.917 106.534 115.795C106.818 115.674 107.059 115.5 107.256 115.273C107.453 115.045 107.593 114.773 107.676 114.455H109.017C108.941 114.97 108.754 115.434 108.455 115.847C108.159 116.256 107.767 116.581 107.278 116.824C106.794 117.062 106.229 117.182 105.585 117.182ZM114.773 108.273V109.409H110.25V108.273H114.773ZM111.568 106.182H112.909V114.5C112.909 114.879 112.964 115.163 113.074 115.352C113.188 115.538 113.331 115.663 113.506 115.727C113.684 115.788 113.871 115.818 114.068 115.818C114.216 115.818 114.337 115.811 114.432 115.795C114.527 115.777 114.602 115.761 114.659 115.75L114.932 116.955C114.841 116.989 114.714 117.023 114.551 117.057C114.388 117.095 114.182 117.114 113.932 117.114C113.553 117.114 113.182 117.032 112.818 116.869C112.458 116.706 112.159 116.458 111.92 116.125C111.686 115.792 111.568 115.371 111.568 114.864V106.182ZM116.79 117V108.273H118.131V117H116.79ZM117.472 106.818C117.21 106.818 116.985 106.729 116.795 106.551C116.61 106.373 116.517 106.159 116.517 105.909C116.517 105.659 116.61 105.445 116.795 105.267C116.985 105.089 117.21 105 117.472 105C117.733 105 117.956 105.089 118.142 105.267C118.331 105.445 118.426 105.659 118.426 105.909C118.426 106.159 118.331 106.373 118.142 106.551C117.956 106.729 117.733 106.818 117.472 106.818ZM127.723 108.273L124.496 117H123.132L119.905 108.273H121.359L123.768 115.227H123.859L126.268 108.273H127.723ZM132.839 117.182C131.999 117.182 131.273 116.996 130.663 116.625C130.057 116.25 129.589 115.727 129.26 115.057C128.934 114.383 128.771 113.598 128.771 112.705C128.771 111.811 128.934 111.023 129.26 110.341C129.589 109.655 130.048 109.121 130.635 108.739C131.226 108.352 131.915 108.159 132.703 108.159C133.158 108.159 133.607 108.235 134.05 108.386C134.493 108.538 134.896 108.784 135.26 109.125C135.624 109.462 135.913 109.909 136.129 110.466C136.345 111.023 136.453 111.708 136.453 112.523V113.091H129.726V111.932H135.089C135.089 111.439 134.991 111 134.794 110.614C134.601 110.227 134.324 109.922 133.964 109.699C133.608 109.475 133.188 109.364 132.703 109.364C132.169 109.364 131.707 109.496 131.317 109.761C130.93 110.023 130.633 110.364 130.425 110.784C130.216 111.205 130.112 111.655 130.112 112.136V112.909C130.112 113.568 130.226 114.127 130.453 114.585C130.684 115.04 131.004 115.386 131.413 115.625C131.822 115.86 132.298 115.977 132.839 115.977C133.192 115.977 133.51 115.928 133.794 115.83C134.082 115.727 134.33 115.576 134.538 115.375C134.747 115.17 134.908 114.917 135.021 114.614L136.317 114.977C136.18 115.417 135.951 115.803 135.629 116.136C135.307 116.466 134.91 116.723 134.436 116.909C133.963 117.091 133.43 117.182 132.839 117.182Z" fill="#24292F"/>
<path d="M61.7344 120.182H137.271V121.273H61.7344V120.182Z" fill="#24292F"/>
</svg>
