<svg width="200" height="200" viewBox="0 0 200 200" fill="none" xmlns="http://www.w3.org/2000/svg">
<path d="M38 69C38 59.6112 45.6112 52 55 52H145C154.389 52 162 59.6112 162 69V69C162 78.3888 154.389 86 145 86H55C45.6112 86 38 78.3888 38 69V69Z" fill="#F6F6F6"/>
<path d="M47 69C47 65.134 50.134 62 54 62H74C77.866 62 81 65.134 81 69V69C81 72.866 77.866 76 74 76H54C50.134 76 47 72.866 47 69V69Z" fill="#24292F"/>
<rect x="52" y="67" width="24" height="4" rx="2" fill="#F6F6F6"/>
<path d="M83 69C83 65.134 86.134 62 90 62H110C113.866 62 117 65.134 117 69V69C117 72.866 113.866 76 110 76H90C86.134 76 83 72.866 83 69V69Z" fill="#24292F" fill-opacity="0.4"/>
<rect x="88" y="67" width="24" height="4" rx="2" fill="#C7C8C9"/>
<path d="M119 69C119 65.134 122.134 62 126 62H146C149.866 62 153 65.134 153 69V69C153 72.866 149.866 76 146 76H126C122.134 76 119 72.866 119 69V69Z" fill="#24292F" fill-opacity="0.4"/>
<rect x="124" y="67" width="24" height="4" rx="2" fill="#C7C8C9"/>
<rect x="44.5" y="86.5" width="111" height="61" rx="6.86842" stroke="#24292F" stroke-dasharray="5 5"/>
</svg>
