<svg width="200" height="200" viewBox="0 0 200 200" fill="none" xmlns="http://www.w3.org/2000/svg">
<path d="M47.3833 72.7589C47.3833 66.2188 52.6851 60.917 59.2252 60.917H140.775C147.315 60.917 152.617 66.2188 152.617 72.7589V72.7589C152.617 79.299 147.315 84.6008 140.775 84.6008H59.2252C52.6851 84.6008 47.3833 79.299 47.3833 72.7589V72.7589Z" fill="#24292F"/>
<path d="M88.6167 99.9842C88.6167 93.3568 93.9893 87.9842 100.617 87.9842H140.617C147.244 87.9842 152.617 93.3568 152.617 99.9842V99.9842C152.617 106.612 147.244 111.984 140.617 111.984H100.617C93.9893 111.984 88.6167 106.612 88.6167 99.9842V99.9842Z" fill="#24292F" fill-opacity="0.4"/>
<path d="M88.6167 127.368C88.6167 120.74 93.9893 115.368 100.617 115.368H140.617C147.244 115.368 152.617 120.74 152.617 127.368V127.368C152.617 133.995 147.244 139.368 140.617 139.368H100.617C93.9893 139.368 88.6167 133.995 88.6167 127.368V127.368Z" fill="#24292F" fill-opacity="0.2"/>
</svg>
