<svg width="200" height="200" viewBox="0 0 200 200" fill="none" xmlns="http://www.w3.org/2000/svg">
<path d="M44 110C44 95.0883 56.0883 83 71 83H129C143.912 83 156 95.0883 156 110V110C156 124.912 143.912 137 129 137H71C56.0883 137 44 124.912 44 110V110Z" fill="#24292F" fill-opacity="0.1"/>
<path d="M54 110C54 100.611 61.6112 93 71 93H129C138.389 93 146 100.611 146 110V110C146 119.389 138.389 127 129 127H71C61.6112 127 54 119.389 54 110V110Z" fill="#F6F6F6"/>
<path d="M55 110C55 101.163 62.1634 94 71 94V94C79.8366 94 87 101.163 87 110V110C87 118.837 79.8366 126 71 126V126C62.1634 126 55 118.837 55 110V110Z" fill="#24292F"/>
</svg>
