<svg width="200" height="200" viewBox="0 0 200 200" fill="none" xmlns="http://www.w3.org/2000/svg">
<path d="M150.954 140.745C149.126 140.745 147.603 140.212 146.385 139.146C145.167 138.08 144.405 136.658 144.101 134.881C142.019 136.912 140.192 138.435 138.618 139.45C137.044 140.465 135.141 140.973 132.907 140.973C130.115 140.973 127.704 140.186 125.673 138.613C123.694 136.988 122.704 134.602 122.704 131.455C122.704 129.983 123.034 128.612 123.694 127.343C124.404 126.074 125.673 124.83 127.501 123.612C129.328 122.394 131.943 121.175 135.344 119.957C136.511 119.551 137.857 119.119 139.379 118.662C140.902 118.206 142.425 117.799 143.948 117.444V115.54C143.948 111.835 143.39 109.373 142.273 108.154C141.156 106.936 139.329 106.327 136.791 106.327C136.232 106.327 135.598 106.352 134.887 106.403C134.227 106.454 133.491 106.581 132.679 106.784L131.232 111.733C130.521 114.17 129.201 115.388 127.272 115.388C125.14 115.388 123.947 114.348 123.694 112.266C124.404 109.373 126.079 107.088 128.719 105.413C131.41 103.687 134.684 102.824 138.542 102.824C142.552 102.824 145.522 103.839 147.451 105.87C149.38 107.85 150.344 111.251 150.344 116.073V132.292C150.344 133.917 150.598 135.085 151.106 135.795C151.614 136.455 152.273 136.785 153.086 136.785C153.746 136.785 154.304 136.633 154.761 136.328C155.218 136.024 155.649 135.618 156.055 135.11L157.578 136.785C156.665 138.257 155.649 139.298 154.532 139.907C153.466 140.465 152.273 140.745 150.954 140.745ZM129.481 130.313C129.481 132.343 130.064 133.79 131.232 134.653C132.399 135.516 133.846 135.947 135.572 135.947C136.334 135.947 137.044 135.846 137.704 135.643C138.415 135.44 139.253 135.059 140.217 134.501C141.182 133.892 142.425 133.029 143.948 131.912V120.261C142.628 120.617 141.334 121.023 140.065 121.48C138.796 121.886 137.755 122.241 136.943 122.546C134.76 123.409 133.136 124.297 132.07 125.211C131.003 126.125 130.293 127.013 129.937 127.876C129.633 128.739 129.481 129.551 129.481 130.313Z" fill="#24292F" fill-opacity="0.3"/>
<path d="M78.7224 75.7925L67.1863 109.83H90.1442L78.7224 75.7925ZM44 139.983V135.3L53.5943 133.815L77.9228 63H85.1186L109.447 134.272L118.013 135.3V139.983H86.9461V135.3L98.1395 133.93L91.8575 115.198H65.3588L58.9626 133.815L70.156 135.3V139.983H44Z" fill="#24292F" fill-opacity="0.3"/>
<path d="M151.952 140.563C150.416 140.563 149.136 140.115 148.112 139.219C147.088 138.323 146.448 137.128 146.192 135.635C144.443 137.341 142.907 138.621 141.584 139.475C140.261 140.328 138.661 140.755 136.784 140.755C134.437 140.755 132.411 140.093 130.704 138.771C129.04 137.405 128.208 135.4 128.208 132.755C128.208 131.517 128.485 130.365 129.04 129.299C129.637 128.232 130.704 127.187 132.24 126.163C133.776 125.139 135.973 124.115 138.832 123.091C139.813 122.749 140.944 122.387 142.224 122.003C143.504 121.619 144.784 121.277 146.064 120.979V119.379C146.064 116.264 145.595 114.195 144.656 113.171C143.717 112.147 142.181 111.635 140.048 111.635C139.579 111.635 139.045 111.656 138.448 111.699C137.893 111.741 137.275 111.848 136.592 112.019L135.376 116.179C134.779 118.227 133.669 119.251 132.048 119.251C130.256 119.251 129.253 118.376 129.04 116.627C129.637 114.195 131.045 112.275 133.264 110.867C135.525 109.416 138.277 108.691 141.52 108.691C144.891 108.691 147.387 109.544 149.008 111.251C150.629 112.915 151.44 115.773 151.44 119.827V133.459C151.44 134.824 151.653 135.805 152.08 136.403C152.507 136.957 153.061 137.235 153.744 137.235C154.299 137.235 154.768 137.107 155.152 136.851C155.536 136.595 155.899 136.253 156.24 135.827L157.52 137.235C156.752 138.472 155.899 139.347 154.96 139.859C154.064 140.328 153.061 140.563 151.952 140.563ZM133.904 131.795C133.904 133.501 134.395 134.717 135.376 135.443C136.357 136.168 137.573 136.531 139.024 136.531C139.664 136.531 140.261 136.445 140.816 136.275C141.413 136.104 142.117 135.784 142.928 135.315C143.739 134.803 144.784 134.077 146.064 133.139V123.347C144.955 123.645 143.867 123.987 142.8 124.371C141.733 124.712 140.859 125.011 140.176 125.267C138.341 125.992 136.976 126.739 136.08 127.507C135.184 128.275 134.587 129.021 134.288 129.747C134.032 130.472 133.904 131.155 133.904 131.795Z" fill="#24292F"/>
<path d="M91.2421 85.9705L81.5461 114.579H100.842L91.2421 85.9705ZM62.0581 139.923V135.987L70.1221 134.739L90.5701 75.2185H96.6181L117.066 135.123L124.266 135.987V139.923H98.1541V135.987L107.562 134.835L102.282 119.091H80.0101L74.6341 134.739L84.0421 135.987V139.923H62.0581Z" fill="#24292F"/>
</svg>
