<svg width="200" height="200" viewBox="0 0 200 200" fill="none" xmlns="http://www.w3.org/2000/svg">
<path d="M144.954 136.745C143.126 136.745 141.603 136.212 140.385 135.146C139.167 134.08 138.405 132.658 138.101 130.881C136.019 132.912 134.192 134.435 132.618 135.45C131.044 136.465 129.141 136.973 126.907 136.973C124.115 136.973 121.704 136.186 119.673 134.613C117.694 132.988 116.704 130.602 116.704 127.455C116.704 125.983 117.034 124.612 117.694 123.343C118.404 122.074 119.673 120.83 121.501 119.612C123.328 118.394 125.943 117.175 129.344 115.957C130.511 115.551 131.857 115.119 133.379 114.662C134.902 114.206 136.425 113.799 137.948 113.444V111.54C137.948 107.835 137.39 105.373 136.273 104.154C135.156 102.936 133.329 102.327 130.791 102.327C130.232 102.327 129.598 102.352 128.887 102.403C128.227 102.454 127.491 102.581 126.679 102.784L125.232 107.733C124.521 110.17 123.201 111.388 121.272 111.388C119.14 111.388 117.947 110.348 117.694 108.266C118.404 105.373 120.079 103.088 122.719 101.413C125.41 99.6871 128.684 98.8242 132.542 98.8242C136.552 98.8242 139.522 99.8394 141.451 101.87C143.38 103.85 144.344 107.251 144.344 112.073V128.292C144.344 129.917 144.598 131.085 145.106 131.795C145.614 132.455 146.273 132.785 147.086 132.785C147.746 132.785 148.304 132.633 148.761 132.328C149.218 132.024 149.649 131.618 150.055 131.11L151.578 132.785C150.665 134.257 149.649 135.298 148.532 135.907C147.466 136.465 146.273 136.745 144.954 136.745ZM123.481 126.313C123.481 128.343 124.064 129.79 125.232 130.653C126.399 131.516 127.846 131.947 129.572 131.947C130.334 131.947 131.044 131.846 131.704 131.643C132.415 131.44 133.253 131.059 134.217 130.501C135.182 129.892 136.425 129.029 137.948 127.912V116.261C136.628 116.617 135.334 117.023 134.065 117.48C132.796 117.886 131.755 118.241 130.943 118.546C128.76 119.409 127.136 120.297 126.07 121.211C125.003 122.125 124.293 123.013 123.937 123.876C123.633 124.739 123.481 125.551 123.481 126.313Z" fill="#24292F" fill-opacity="0.3"/>
<path d="M72.7224 71.7925L61.1863 105.83H84.1442L72.7224 71.7925ZM38 135.983V131.3L47.5943 129.815L71.9228 59H79.1186L103.447 130.272L112.013 131.3V135.983H80.9461V131.3L92.1395 129.93L85.8575 111.198H59.3588L52.9626 129.815L64.156 131.3V135.983H38Z" fill="#24292F" fill-opacity="0.3"/>
<path d="M156.952 140.563C155.416 140.563 154.136 140.115 153.112 139.219C152.088 138.323 151.448 137.128 151.192 135.635C149.443 137.341 147.907 138.621 146.584 139.475C145.261 140.328 143.661 140.755 141.784 140.755C139.437 140.755 137.411 140.093 135.704 138.771C134.04 137.405 133.208 135.4 133.208 132.755C133.208 131.517 133.485 130.365 134.04 129.299C134.637 128.232 135.704 127.187 137.24 126.163C138.776 125.139 140.973 124.115 143.832 123.091C144.813 122.749 145.944 122.387 147.224 122.003C148.504 121.619 149.784 121.277 151.064 120.979V119.379C151.064 116.264 150.595 114.195 149.656 113.171C148.717 112.147 147.181 111.635 145.048 111.635C144.579 111.635 144.045 111.656 143.448 111.699C142.893 111.741 142.275 111.848 141.592 112.019L140.376 116.179C139.779 118.227 138.669 119.251 137.048 119.251C135.256 119.251 134.253 118.376 134.04 116.627C134.637 114.195 136.045 112.275 138.264 110.867C140.525 109.416 143.277 108.691 146.52 108.691C149.891 108.691 152.387 109.544 154.008 111.251C155.629 112.915 156.44 115.773 156.44 119.827V133.459C156.44 134.824 156.653 135.805 157.08 136.403C157.507 136.957 158.061 137.235 158.744 137.235C159.299 137.235 159.768 137.107 160.152 136.851C160.536 136.595 160.899 136.253 161.24 135.827L162.52 137.235C161.752 138.472 160.899 139.347 159.96 139.859C159.064 140.328 158.061 140.563 156.952 140.563ZM138.904 131.795C138.904 133.501 139.395 134.717 140.376 135.443C141.357 136.168 142.573 136.531 144.024 136.531C144.664 136.531 145.261 136.445 145.816 136.275C146.413 136.104 147.117 135.784 147.928 135.315C148.739 134.803 149.784 134.077 151.064 133.139V123.347C149.955 123.645 148.867 123.987 147.8 124.371C146.733 124.712 145.859 125.011 145.176 125.267C143.341 125.992 141.976 126.739 141.08 127.507C140.184 128.275 139.587 129.021 139.288 129.747C139.032 130.472 138.904 131.155 138.904 131.795Z" fill="#24292F"/>
<path d="M96.2421 85.9705L86.5461 114.579H105.842L96.2421 85.9705ZM67.0581 139.923V135.987L75.1221 134.739L95.5701 75.2185H101.618L122.066 135.123L129.266 135.987V139.923H103.154V135.987L112.562 134.835L107.282 119.091H85.0101L79.6341 134.739L89.0421 135.987V139.923H67.0581Z" fill="#24292F"/>
</svg>
