<svg width="300" height="300" viewBox="0 0 300 300" fill="none" xmlns="http://www.w3.org/2000/svg">
<path d="M111.161 40.9821C139.286 40.9823 121.313 67.7679 128.758 103.928C136.203 140.089 143.946 125.357 109.125 148.125C109.081 148.087 87.051 129.349 84.3751 103.928C84.171 101.989 84.0924 99.9805 84.1241 97.9235C84.3809 97.9613 84.6439 97.9821 84.9112 97.9821C87.8697 97.9819 90.2677 95.5832 90.2677 92.6247C93.2262 92.6247 95.6249 90.2268 95.6251 87.2683C95.6251 86.1649 95.2916 85.139 94.7198 84.2868C96.8067 83.5548 98.3038 81.5691 98.3038 79.2321C98.3038 77.6315 97.6013 76.1952 96.4884 75.2136C97.6009 74.232 98.3038 72.7963 98.3038 71.196C98.3036 68.8588 96.8063 66.872 94.7188 66.1403C95.2904 65.2883 95.6251 64.2639 95.6251 63.1609C95.6251 61.8125 95.1261 60.581 94.3038 59.6394C99.7339 48.7622 106.281 40.9821 111.161 40.9821Z" fill="#EDECEC"/>
<path d="M125.867 101.25C119.102 84.3384 88.7017 124.018 93.724 132.054C99.0811 140.625 101.76 138.75 104.438 144.107L135.242 128.036C127.206 117.321 128.545 107.946 125.867 101.25Z" fill="url(#paint0_linear_106_2)" fill-opacity="0.2"/>
<path d="M171.242 103.929C163.797 140.089 156.054 125.357 190.875 148.125C190.875 148.125 212.946 129.375 215.625 103.929C218.304 78.4821 199.554 40.9821 188.839 40.9821C160.714 40.9821 178.687 67.7679 171.242 103.929Z" fill="#EDECEC"/>
<path d="M174.133 101.25C180.898 84.3384 211.298 124.018 206.276 132.054C200.919 140.625 198.24 138.75 195.562 144.107L164.758 128.036C172.794 117.321 171.455 107.946 174.133 101.25Z" fill="url(#paint1_linear_106_2)" fill-opacity="0.2"/>
<path d="M150 121.339C191.421 121.339 225 152.911 225 194.332C225 230.052 208.069 249.978 169.912 254.788C169.698 255.709 169.355 256.74 168.861 257.891C163.504 270.39 163.325 268.605 158.147 268.605C152.97 268.605 150.111 265.887 150.111 259.23C150.111 258.913 150.103 258.599 150.093 258.289C150.084 258.57 150.079 258.855 150.079 259.142C150.079 265.799 147.22 268.517 142.043 268.517C136.865 268.517 136.685 270.302 131.328 257.802C130.855 256.699 130.522 255.707 130.307 254.815C91.9961 250.054 75 230.12 75 194.332C75 152.911 108.579 121.339 150 121.339Z" fill="#EDECEC"/>
<path d="M134.807 192.321C137.486 208.393 132.129 233.839 110.7 225.804C95.4638 220.09 85.2539 208.393 89.2718 189.643C93.2896 170.893 98.4455 166.875 114.718 166.875C130.991 166.875 132.129 176.25 134.807 192.321Z" fill="#24212D" fill-opacity="0.13"/>
<path d="M134.165 195.907C136.758 210.86 131.573 234.534 110.835 227.058C96.0887 221.742 86.2077 210.86 90.0961 193.415C93.9846 175.97 98.9744 172.232 114.723 172.232C130.472 172.232 131.573 180.954 134.165 195.907Z" fill="#24212D"/>
<circle cx="115.179" cy="199.018" r="2.67857" fill="#FA3D97"/>
<path d="M164.882 192.321C162.203 208.393 167.561 233.839 188.989 225.804C204.226 220.09 214.436 208.393 210.418 189.643C206.4 170.893 201.244 166.875 184.971 166.875C168.699 166.875 167.561 176.25 164.882 192.321Z" fill="#24212D" fill-opacity="0.13"/>
<path d="M165.524 195.907C162.932 210.86 168.116 234.534 188.855 227.058C203.601 221.742 213.482 210.86 209.593 193.415C205.705 175.97 200.715 172.232 184.966 172.232C169.218 172.232 168.116 180.954 165.524 195.907Z" fill="#24212D"/>
<circle cx="184.822" cy="199.018" r="2.67857" fill="#FA3D97"/>
<path d="M160.74 228.482C160.74 234.399 155.944 237.857 150.026 237.857C144.109 237.857 139.312 234.399 139.312 228.482C139.312 222.565 144.109 221.786 150.026 221.786C155.944 221.786 160.74 222.565 160.74 228.482Z" fill="#24212D" fill-opacity="0.13"/>
<path d="M160.74 228.482C160.74 234.399 155.944 237.857 150.026 237.857C144.109 237.857 139.312 234.399 139.312 228.482C139.312 222.565 144.083 224.464 150 224.464C155.917 224.464 160.74 222.565 160.74 228.482Z" fill="#24212D"/>
<defs>
<linearGradient id="paint0_linear_106_2" x1="103.099" y1="121.339" x2="128.545" y2="142.768" gradientUnits="userSpaceOnUse">
<stop stop-color="#24212D" stop-opacity="0"/>
<stop offset="1" stop-color="#A7A3B3"/>
</linearGradient>
<linearGradient id="paint1_linear_106_2" x1="196.901" y1="121.339" x2="171.455" y2="142.768" gradientUnits="userSpaceOnUse">
<stop stop-color="#24212D" stop-opacity="0"/>
<stop offset="1" stop-color="#A7A3B3"/>
</linearGradient>
</defs>
</svg>
