<svg width="150" height="150" viewBox="0 0 150 150" fill="none" xmlns="http://www.w3.org/2000/svg">
<path d="M56.8746 24.5C69.9995 24.5 61.6123 37.0001 65.0865 53.875C68.5607 70.75 72.1743 63.875 55.9244 74.5C55.8694 74.4532 45.6212 65.7182 44.3746 53.875C44.2792 52.9691 44.2424 52.0304 44.2574 51.0693C44.3774 51.087 44.4996 51.0996 44.6246 51.0996C46.0053 51.0996 47.1246 49.9803 47.1246 48.5996C48.5053 48.5996 49.6246 47.4803 49.6246 46.0996C49.6245 45.584 49.4683 45.105 49.2007 44.707C50.1751 44.3657 50.8746 43.4406 50.8746 42.3496C50.8744 41.602 50.5452 40.9327 50.0249 40.4746C50.545 40.0165 50.8746 39.3472 50.8746 38.5996C50.8744 37.5087 50.1751 36.5834 49.2007 36.2422C49.4682 35.8442 49.6246 35.3652 49.6246 34.8496C49.6245 34.2206 49.3909 33.6473 49.0074 33.208C51.5415 28.1315 54.597 24.5003 56.8746 24.5Z" fill="#D39D60"/>
<path d="M63.7378 52.6251C60.581 44.7331 46.3941 63.2501 48.7378 67.0001C51.2378 71.0001 52.4878 70.1251 53.7378 72.6251L68.1128 65.1251C64.3628 60.1251 64.9878 55.7501 63.7378 52.6251Z" fill="url(#paint0_linear_109_158)" fill-opacity="0.2"/>
<path d="M84.9129 53.875C81.4387 70.75 77.8251 63.875 94.0751 74.5C94.0751 74.5 104.375 65.75 105.625 53.875C106.875 42 98.125 24.5 93.125 24.5C80 24.5 88.3872 37 84.9129 53.875Z" fill="#D39D60"/>
<path d="M86.2622 52.6251C89.419 44.7331 103.606 63.2501 101.262 67.0001C98.7622 71.0001 97.5122 70.1251 96.2622 72.6251L81.8872 65.1251C85.6372 60.1251 85.0122 55.7501 86.2622 52.6251Z" fill="url(#paint1_linear_109_158)" fill-opacity="0.2"/>
<path d="M75 61.9999C94.33 61.9999 110 76.7334 110 96.0634C110 112.71 102.12 122.005 84.3652 124.266C84.2667 124.713 84.1029 125.216 83.8604 125.782C81.3603 131.615 81.2766 130.782 78.8604 130.782C76.4441 130.782 75.1104 129.514 75.1104 126.407C75.1104 125.853 75.0698 125.318 75.0293 124.812C75.0195 124.812 75.0098 124.813 75 124.813L74.9971 124.812C74.9577 125.306 74.9199 125.827 74.9199 126.366C74.9199 129.473 73.5862 130.741 71.1699 130.741C68.7538 130.741 68.6699 131.574 66.1699 125.741C65.9356 125.194 65.7734 124.706 65.6738 124.27C47.8914 122.018 40 112.722 40 96.0634C40 76.7334 55.67 61.9999 75 61.9999Z" fill="#D39D60"/>
<path d="M75 61.9999C94.33 61.9999 110 76.7334 110 96.0634C110 112.71 102.12 122.005 84.3652 124.266C84.2667 124.713 84.1029 125.216 83.8604 125.782C81.3603 131.615 81.2766 130.782 78.8604 130.782C76.4441 130.782 75.1104 129.514 75.1104 126.407C75.1104 125.853 75.0698 125.318 75.0293 124.812C75.0195 124.812 75.0098 124.813 75 124.813L74.9971 124.812C74.9577 125.306 74.9199 125.827 74.9199 126.366C74.9199 129.473 73.5862 130.741 71.1699 130.741C68.7538 130.741 68.6699 131.574 66.1699 125.741C65.9356 125.194 65.7734 124.706 65.6738 124.27C47.8914 122.018 40 112.722 40 96.0634C40 76.7334 55.67 61.9999 75 61.9999Z" fill="url(#paint2_radial_109_158)" fill-opacity="0.2"/>
<path d="M67.9101 95.1249C69.1601 102.625 66.6601 114.5 56.6601 110.75C49.5497 108.083 44.7851 102.625 46.6601 93.8749C48.5351 85.1249 50.9412 83.2499 58.5351 83.2499C66.129 83.2499 66.6601 87.6249 67.9101 95.1249Z" fill="#24212D" fill-opacity="0.13"/>
<path d="M67.6105 96.7981C68.8203 103.776 66.4008 114.824 56.7228 111.335C49.8414 108.855 45.2302 103.776 47.0449 95.6352C48.8595 87.4943 51.1881 85.7499 58.5374 85.7499C65.8868 85.7499 66.4008 89.8203 67.6105 96.7981Z" fill="#24212D"/>
<circle cx="58.75" cy="98.2499" r="1.25" fill="#D39D60"/>
<path d="M81.9449 95.1249C80.6949 102.625 83.1949 114.5 93.1949 110.75C100.305 108.083 105.07 102.625 103.195 93.8749C101.32 85.1249 98.9138 83.2499 91.3199 83.2499C83.726 83.2499 83.1949 87.6249 81.9449 95.1249Z" fill="#24212D" fill-opacity="0.13"/>
<path d="M82.2445 96.7981C81.0348 103.776 83.4543 114.824 93.1322 111.335C100.014 108.855 104.625 103.776 102.81 95.6352C100.996 87.4943 98.667 85.7499 91.3176 85.7499C83.9683 85.7499 83.4543 89.8203 82.2445 96.7981Z" fill="#24212D"/>
<circle cx="91.25" cy="98.2499" r="1.25" fill="#D39D60"/>
<path d="M80.0122 112C80.0122 114.761 77.7736 116.375 75.0122 116.375C72.2508 116.375 70.0122 114.761 70.0122 112C70.0122 109.239 72.2508 108.875 75.0122 108.875C77.7736 108.875 80.0122 109.239 80.0122 112Z" fill="#24212D" fill-opacity="0.13"/>
<path d="M80.0122 112C80.0122 114.761 77.7736 116.375 75.0122 116.375C72.2508 116.375 70.0122 114.761 70.0122 112C70.0122 109.238 72.2386 110.125 75 110.125C77.7615 110.125 80.0122 109.238 80.0122 112Z" fill="#24212D"/>
<defs>
<linearGradient id="paint0_linear_109_158" x1="53.1128" y1="62.0001" x2="64.9878" y2="72.0001" gradientUnits="userSpaceOnUse">
<stop stop-color="#24212D" stop-opacity="0"/>
<stop offset="1" stop-color="#A06A2C"/>
</linearGradient>
<linearGradient id="paint1_linear_109_158" x1="96.8872" y1="62.0001" x2="85.0122" y2="72.0001" gradientUnits="userSpaceOnUse">
<stop stop-color="#24212D" stop-opacity="0"/>
<stop offset="1" stop-color="#A06A2C"/>
</linearGradient>
<radialGradient id="paint2_radial_109_158" cx="0" cy="0" r="1" gradientUnits="userSpaceOnUse" gradientTransform="translate(75 134.963) rotate(-90) scale(42.6126 43.3354)">
<stop stop-color="#24212D"/>
<stop offset="1" stop-opacity="0"/>
</radialGradient>
</defs>
</svg>
