<svg width="116" height="116" viewBox="0 0 116 116" fill="none" xmlns="http://www.w3.org/2000/svg">
<path fill-rule="evenodd" clip-rule="evenodd" d="M50.2376 45.1681C50.9046 47.3548 51.2614 48.5246 50.9328 49.4514C50.5548 50.5176 49.2697 51.2622 46.506 52.8633C44.6797 53.9214 42.2076 55.3536 38.9249 57.5C38.9249 57.5 28.625 48.75 27.375 36.875C27.2798 35.9703 27.2426 35.0329 27.2574 34.0731C27.3773 34.0908 27.5001 34.1 27.625 34.1C29.0057 34.1 30.125 32.9807 30.125 31.6C31.5057 31.6 32.625 30.4807 32.625 29.1C32.625 28.5854 32.4695 28.1072 32.203 27.7096C33.1768 27.3679 33.875 26.4405 33.875 25.35C33.875 24.6033 33.5477 23.9331 33.0286 23.475C33.5477 23.0169 33.875 22.3467 33.875 21.6C33.875 20.5095 33.1768 19.5821 32.203 19.2404C32.4695 18.8428 32.625 18.3646 32.625 17.85C32.625 17.2206 32.3924 16.6455 32.0085 16.206C34.5425 11.1303 37.5977 7.5 39.875 7.5C48.1653 7.5 47.8729 12.4871 47.408 20.4138C47.137 25.0365 46.8073 30.6589 48.0871 36.875C48.8743 40.6989 49.6688 43.3032 50.2376 45.1681Z" fill="#111111"/>
<path d="M46.7378 35.625C43.581 27.7329 29.3941 46.25 31.7378 50C34.2378 54 35.4878 53.125 36.7378 55.625L51.1128 48.125C47.3628 43.125 47.9878 38.75 46.7378 35.625Z" fill="url(#paint0_linear_1_80)" fill-opacity="0.2"/>
<path d="M67.9129 36.875C64.4387 53.75 60.8251 46.875 77.0751 57.5C77.0751 57.5 87.375 48.75 88.625 36.875C89.875 25 81.125 7.5 76.125 7.5C63 7.5 71.3872 20 67.9129 36.875Z" fill="#111111"/>
<path d="M69.2622 35.625C72.419 27.7329 86.6059 46.25 84.2622 50C81.7622 54 80.5122 53.125 79.2622 55.625L64.8872 48.125C68.6372 43.125 68.0122 38.75 69.2622 35.625Z" fill="url(#paint1_linear_1_80)" fill-opacity="0.2"/>
<path d="M63.0122 95C63.0122 97.7614 60.7736 99.375 58.0122 99.375C55.2508 99.375 53.0122 97.7614 53.0122 95C53.0122 92.2386 55.2508 91.875 58.0122 91.875C60.7736 91.875 63.0122 92.2386 63.0122 95Z" fill="#24212D" fill-opacity="0.13"/>
<path fill-rule="evenodd" clip-rule="evenodd" d="M93 79.0634C93 95.8403 84.9964 105.152 66.946 107.319C66.8473 107.667 66.7117 108.046 66.5353 108.457C64.341 113.577 64.0082 113.561 62.3258 113.481C62.0914 113.47 61.8308 113.457 61.5353 113.457C59.7701 113.457 58.5826 112.78 58.0709 111.204C57.5519 112.751 56.3698 113.416 54.62 113.416C54.3245 113.416 54.064 113.429 53.8296 113.44C52.1472 113.52 51.8143 113.536 49.62 108.416C49.454 108.029 49.3241 107.671 49.2271 107.34C31.0548 105.212 23 95.8938 23 79.0634C23 59.7335 38.67 45 58 45C77.33 45 93 59.7335 93 79.0634ZM50.9101 78.125C51.4173 81.1683 51.3071 84.932 50.3289 88.0798C49.1236 92.8629 45.9033 96.5635 39.7228 94.3354C34.8698 92.5859 31.1458 89.5443 30.0087 85.0477C29.1695 82.7321 28.9871 80.0156 29.6601 76.875C31.5351 68.125 33.9412 66.25 41.5351 66.25C48.9388 66.25 49.6291 70.4085 50.8174 77.5672L50.9101 78.125ZM64.9449 78.125C64.4377 81.1683 64.5479 84.9319 65.5261 88.0797C66.7314 92.8628 69.9516 96.5636 76.1322 94.3354C80.9853 92.5859 84.7092 89.5443 85.8463 85.0478C86.6855 82.7322 86.8679 80.0156 86.1949 76.875C84.3199 68.125 81.9138 66.25 74.3199 66.25C66.9163 66.25 66.226 70.4085 65.0377 77.5672L64.9449 78.125ZM58.0122 99.375C60.7736 99.375 63.0122 97.7614 63.0122 95C63.0122 92.8156 61.6038 92.9138 59.6482 93.0503C59.1317 93.0863 58.577 93.125 58 93.125C57.4223 93.125 56.868 93.0862 56.3526 93.0501C54.4045 92.9138 53.0122 92.8163 53.0122 95C53.0122 97.7614 55.2508 99.375 58.0122 99.375Z" fill="#111111"/>
<circle cx="41.75" cy="81.25" r="1.25" fill="#FA3D97"/>
<circle cx="74.25" cy="81.25" r="1.25" fill="#FA3D97"/>
<defs>
<linearGradient id="paint0_linear_1_80" x1="36.1128" y1="45" x2="47.9878" y2="55" gradientUnits="userSpaceOnUse">
<stop stop-color="#24212D" stop-opacity="0"/>
<stop offset="1" stop-color="#24212D"/>
</linearGradient>
<linearGradient id="paint1_linear_1_80" x1="79.8872" y1="45" x2="68.0122" y2="55" gradientUnits="userSpaceOnUse">
<stop stop-color="#24212D" stop-opacity="0"/>
<stop offset="1" stop-color="#24212D"/>
</linearGradient>
</defs>
</svg>
