<svg width="200" height="200" viewBox="0 0 200 200" fill="none" xmlns="http://www.w3.org/2000/svg">
<circle cx="76.5" cy="140.5" r="13.5" fill="#24292F" stroke="#F6F6F6" stroke-width="8"/>
<circle cx="117.5" cy="59.5" r="13.5" fill="#24292F" stroke="#F6F6F6" stroke-width="8"/>
<path fill-rule="evenodd" clip-rule="evenodd" d="M115.953 82.2032C116.807 81.3489 118.193 81.3489 119.047 82.2032L129.255 92.4115C129.881 93.0372 130.068 93.978 129.729 94.7954C129.391 95.6129 128.593 96.1458 127.708 96.1458H119.687V123.125C119.687 124.333 118.708 125.312 117.5 125.312C116.292 125.312 115.312 124.333 115.312 123.125V96.1458H107.292C106.407 96.1458 105.609 95.6129 105.271 94.7954C104.932 93.978 105.119 93.0372 105.745 92.4115L115.953 82.2032Z" fill="#24292F"/>
<path fill-rule="evenodd" clip-rule="evenodd" d="M74.479 96.875C74.479 90.029 80.0288 84.4792 86.8748 84.4792C93.7209 84.4792 99.2707 90.029 99.2707 96.875V123.125C99.2707 127.555 102.862 131.146 107.292 131.146C111.721 131.146 115.312 127.555 115.312 123.125C115.312 121.917 116.292 120.938 117.5 120.938C118.708 120.938 119.687 121.917 119.687 123.125C119.687 129.971 114.138 135.521 107.292 135.521C100.446 135.521 94.8957 129.971 94.8957 123.125V96.875C94.8957 92.4452 91.3046 88.8542 86.8748 88.8542C82.445 88.8542 78.854 92.4452 78.854 96.875V131.875C78.854 133.083 77.8746 134.063 76.6665 134.063C75.4584 134.063 74.479 133.083 74.479 131.875V96.875Z" fill="#24292F"/>
</svg>
