<svg width="200" height="200" viewBox="0 0 200 200" fill="none" xmlns="http://www.w3.org/2000/svg">
<rect x="82" y="99" width="32" height="32" rx="16" transform="rotate(-90 82 99)" fill="#24292F"/>
<rect x="66" y="115" width="16" height="16" rx="8" transform="rotate(-90 66 115)" fill="#24292F" fill-opacity="0.5"/>
<rect x="114" y="115" width="16" height="16" rx="8" transform="rotate(-90 114 115)" fill="#24292F" fill-opacity="0.5"/>
<rect x="58" y="127" width="8" height="8" rx="4" transform="rotate(-90 58 127)" fill="#24292F" fill-opacity="0.3"/>
<rect x="54" y="133" width="4" height="4" rx="2" transform="rotate(-90 54 133)" fill="#24292F" fill-opacity="0.1"/>
<rect x="78" y="133" width="4" height="4" rx="2" transform="rotate(-90 78 133)" fill="#24292F" fill-opacity="0.1"/>
<rect x="102" y="133" width="4" height="4" rx="2" transform="rotate(-90 102 133)" fill="#24292F" fill-opacity="0.1"/>
<rect x="126" y="133" width="4" height="4" rx="2" transform="rotate(-90 126 133)" fill="#24292F" fill-opacity="0.1"/>
<rect x="66" y="133" width="4" height="4" rx="2" transform="rotate(-90 66 133)" fill="#24292F" fill-opacity="0.1"/>
<rect x="90" y="133" width="4" height="4" rx="2" transform="rotate(-90 90 133)" fill="#24292F" fill-opacity="0.1"/>
<rect x="114" y="133" width="4" height="4" rx="2" transform="rotate(-90 114 133)" fill="#24292F" fill-opacity="0.1"/>
<rect x="138" y="133" width="4" height="4" rx="2" transform="rotate(-90 138 133)" fill="#24292F" fill-opacity="0.1"/>
<rect x="106" y="127" width="8" height="8" rx="4" transform="rotate(-90 106 127)" fill="#24292F" fill-opacity="0.3"/>
<rect x="82" y="127" width="8" height="8" rx="4" transform="rotate(-90 82 127)" fill="#24292F" fill-opacity="0.3"/>
<rect x="130" y="127" width="8" height="8" rx="4" transform="rotate(-90 130 127)" fill="#24292F" fill-opacity="0.3"/>
</svg>
