<svg width="200" height="200" viewBox="0 0 200 200" fill="none" xmlns="http://www.w3.org/2000/svg">
<g clip-path="url(#clip0_55_8)">
<g filter="url(#filter0_dn_55_8)">
<mask id="path-1-outside-1_55_8" maskUnits="userSpaceOnUse" x="40" y="76" width="120" height="49" fill="black">
<rect fill="white" x="40" y="76" width="120" height="49"/>
<path d="M45.8245 82.8349H52.2971C56.6122 82.8349 59.53 83.0014 61.0504 83.3344C62.5853 83.6675 63.8306 84.5218 64.7863 85.8974C65.7565 87.2586 66.2416 89.4378 66.2416 92.4352C66.2416 95.172 65.9013 97.011 65.2207 97.9522C64.5401 98.8934 63.2007 99.4581 61.2025 99.6464C63.0125 100.095 64.2288 100.696 64.8515 101.449C65.4741 102.202 65.8578 102.897 66.0026 103.534C66.1619 104.157 66.2416 105.887 66.2416 108.725V118H57.7489V106.314C57.7489 104.432 57.5969 103.266 57.2928 102.818C57.0032 102.369 56.2285 102.144 54.9687 102.144V118H45.8245V82.8349ZM54.9687 88.8514V96.6707C55.9968 96.6707 56.7136 96.5331 57.1191 96.258C57.539 95.9684 57.7489 95.0489 57.7489 93.4995V91.5664C57.7489 90.4514 57.5462 89.7202 57.1408 89.3727C56.7498 89.0251 56.0258 88.8514 54.9687 88.8514ZM69.8037 82.8349H85.0513V89.8722H78.9479V96.5404H84.6604V103.23H78.9479V110.963H85.6595V118H69.8037V82.8349ZM106.728 82.8349V89.8722H101.298V118H92.1539V89.8722H86.7455V82.8349H106.728ZM108.813 82.8349H115.286C119.601 82.8349 122.519 83.0014 124.039 83.3344C125.574 83.6675 126.819 84.5218 127.775 85.8974C128.745 87.2586 129.23 89.4378 129.23 92.4352C129.23 95.172 128.89 97.011 128.21 97.9522C127.529 98.8934 126.19 99.4581 124.191 99.6464C126.001 100.095 127.218 100.696 127.84 101.449C128.463 102.202 128.847 102.897 128.991 103.534C129.151 104.157 129.23 105.887 129.23 108.725V118H120.738V106.314C120.738 104.432 120.586 103.266 120.282 102.818C119.992 102.369 119.217 102.144 117.958 102.144V118H108.813V82.8349ZM117.958 88.8514V96.6707C118.986 96.6707 119.702 96.5331 120.108 96.258C120.528 95.9684 120.738 95.0489 120.738 93.4995V91.5664C120.738 90.4514 120.535 89.7202 120.13 89.3727C119.739 89.0251 119.015 88.8514 117.958 88.8514ZM153.687 103.426C153.687 106.959 153.601 109.464 153.427 110.941C153.268 112.403 152.746 113.743 151.863 114.959C150.994 116.175 149.814 117.109 148.323 117.761C146.831 118.413 145.093 118.738 143.11 118.738C141.227 118.738 139.533 118.434 138.027 117.826C136.536 117.204 135.334 116.277 134.422 115.046C133.509 113.815 132.966 112.476 132.793 111.028C132.619 109.58 132.532 107.046 132.532 103.426V97.4092C132.532 93.876 132.612 91.3782 132.771 89.9157C132.945 88.4387 133.466 87.092 134.335 85.8757C135.218 84.6594 136.405 83.7254 137.897 83.0738C139.388 82.4222 141.126 82.0964 143.11 82.0964C144.992 82.0964 146.679 82.4077 148.17 83.0303C149.676 83.6385 150.886 84.558 151.798 85.7888C152.71 87.0196 153.253 88.3591 153.427 89.8071C153.601 91.2551 153.687 93.7891 153.687 97.4092V103.426ZM144.543 91.8705C144.543 90.2342 144.449 89.1917 144.261 88.7428C144.087 88.2794 143.718 88.0477 143.153 88.0477C142.675 88.0477 142.306 88.236 142.045 88.6125C141.799 88.9745 141.676 90.0605 141.676 91.8705V108.291C141.676 110.333 141.756 111.593 141.915 112.07C142.089 112.548 142.48 112.787 143.088 112.787C143.711 112.787 144.109 112.512 144.283 111.962C144.456 111.412 144.543 110.101 144.543 108.03V91.8705Z"/>
</mask>
<path d="M45.8245 82.8349H52.2971C56.6122 82.8349 59.53 83.0014 61.0504 83.3344C62.5853 83.6675 63.8306 84.5218 64.7863 85.8974C65.7565 87.2586 66.2416 89.4378 66.2416 92.4352C66.2416 95.172 65.9013 97.011 65.2207 97.9522C64.5401 98.8934 63.2007 99.4581 61.2025 99.6464C63.0125 100.095 64.2288 100.696 64.8515 101.449C65.4741 102.202 65.8578 102.897 66.0026 103.534C66.1619 104.157 66.2416 105.887 66.2416 108.725V118H57.7489V106.314C57.7489 104.432 57.5969 103.266 57.2928 102.818C57.0032 102.369 56.2285 102.144 54.9687 102.144V118H45.8245V82.8349ZM54.9687 88.8514V96.6707C55.9968 96.6707 56.7136 96.5331 57.1191 96.258C57.539 95.9684 57.7489 95.0489 57.7489 93.4995V91.5664C57.7489 90.4514 57.5462 89.7202 57.1408 89.3727C56.7498 89.0251 56.0258 88.8514 54.9687 88.8514ZM69.8037 82.8349H85.0513V89.8722H78.9479V96.5404H84.6604V103.23H78.9479V110.963H85.6595V118H69.8037V82.8349ZM106.728 82.8349V89.8722H101.298V118H92.1539V89.8722H86.7455V82.8349H106.728ZM108.813 82.8349H115.286C119.601 82.8349 122.519 83.0014 124.039 83.3344C125.574 83.6675 126.819 84.5218 127.775 85.8974C128.745 87.2586 129.23 89.4378 129.23 92.4352C129.23 95.172 128.89 97.011 128.21 97.9522C127.529 98.8934 126.19 99.4581 124.191 99.6464C126.001 100.095 127.218 100.696 127.84 101.449C128.463 102.202 128.847 102.897 128.991 103.534C129.151 104.157 129.23 105.887 129.23 108.725V118H120.738V106.314C120.738 104.432 120.586 103.266 120.282 102.818C119.992 102.369 119.217 102.144 117.958 102.144V118H108.813V82.8349ZM117.958 88.8514V96.6707C118.986 96.6707 119.702 96.5331 120.108 96.258C120.528 95.9684 120.738 95.0489 120.738 93.4995V91.5664C120.738 90.4514 120.535 89.7202 120.13 89.3727C119.739 89.0251 119.015 88.8514 117.958 88.8514ZM153.687 103.426C153.687 106.959 153.601 109.464 153.427 110.941C153.268 112.403 152.746 113.743 151.863 114.959C150.994 116.175 149.814 117.109 148.323 117.761C146.831 118.413 145.093 118.738 143.11 118.738C141.227 118.738 139.533 118.434 138.027 117.826C136.536 117.204 135.334 116.277 134.422 115.046C133.509 113.815 132.966 112.476 132.793 111.028C132.619 109.58 132.532 107.046 132.532 103.426V97.4092C132.532 93.876 132.612 91.3782 132.771 89.9157C132.945 88.4387 133.466 87.092 134.335 85.8757C135.218 84.6594 136.405 83.7254 137.897 83.0738C139.388 82.4222 141.126 82.0964 143.11 82.0964C144.992 82.0964 146.679 82.4077 148.17 83.0303C149.676 83.6385 150.886 84.558 151.798 85.7888C152.71 87.0196 153.253 88.3591 153.427 89.8071C153.601 91.2551 153.687 93.7891 153.687 97.4092V103.426ZM144.543 91.8705C144.543 90.2342 144.449 89.1917 144.261 88.7428C144.087 88.2794 143.718 88.0477 143.153 88.0477C142.675 88.0477 142.306 88.236 142.045 88.6125C141.799 88.9745 141.676 90.0605 141.676 91.8705V108.291C141.676 110.333 141.756 111.593 141.915 112.07C142.089 112.548 142.48 112.787 143.088 112.787C143.711 112.787 144.109 112.512 144.283 111.962C144.456 111.412 144.543 110.101 144.543 108.03V91.8705Z" fill="#24292F"/>
<path d="M45.8245 82.8349V77.2745H40.2641V82.8349H45.8245ZM61.0504 83.3344L59.8606 88.766L59.8714 88.7684L61.0504 83.3344ZM64.7863 85.8974L60.2198 89.0699L60.2389 89.0975L60.2584 89.1248L64.7863 85.8974ZM61.2025 99.6464L60.681 94.1105L59.864 105.043L61.2025 99.6464ZM66.0026 103.534L60.5805 104.767L60.5971 104.84L60.6157 104.912L66.0026 103.534ZM66.2416 118V123.56H71.802V118H66.2416ZM57.7489 118H52.1885V123.56H57.7489V118ZM57.2928 102.818L52.6204 105.832L52.6543 105.884L52.6893 105.936L57.2928 102.818ZM54.9687 102.144V96.5838H49.4084V102.144H54.9687ZM54.9687 118V123.56H60.5291V118H54.9687ZM45.8245 118H40.2641V123.56H45.8245V118ZM54.9687 88.8514V83.291H49.4084V88.8514H54.9687ZM54.9687 96.6707H49.4084V102.231H54.9687V96.6707ZM57.1191 96.258L60.2412 100.859L60.2586 100.847L60.2759 100.835L57.1191 96.258ZM57.1408 89.3727L53.4466 93.5286L53.4841 93.5618L53.5221 93.5944L57.1408 89.3727ZM45.8245 82.8349V88.3953H52.2971V82.8349V77.2745H45.8245V82.8349ZM52.2971 82.8349V88.3953C56.6798 88.3953 59.0141 88.5806 59.8606 88.766L61.0504 83.3344L62.2402 77.9028C60.0459 77.4222 56.5447 77.2745 52.2971 77.2745V82.8349ZM61.0504 83.3344L59.8714 88.7684C59.9241 88.7798 59.9523 88.7908 59.9634 88.7955C59.974 88.8001 59.9813 88.8041 59.99 88.8101C60 88.8169 60.0843 88.875 60.2198 89.0699L64.7863 85.8974L69.3528 82.7249C67.6531 80.2783 65.2359 78.5528 62.2295 77.9005L61.0504 83.3344ZM64.7863 85.8974L60.2584 89.1248C60.1927 89.0327 60.318 89.1671 60.4502 89.7609C60.5803 90.3454 60.6812 91.2142 60.6812 92.4352H66.2416H71.802C71.802 89.0849 71.3068 85.4656 69.3142 82.6701L64.7863 85.8974ZM66.2416 92.4352H60.6812C60.6812 93.6048 60.606 94.384 60.5188 94.8553C60.4766 95.0831 60.4436 95.1726 60.4477 95.1614C60.4499 95.1553 60.5181 94.9662 60.7149 94.6941L65.2207 97.9522L69.7266 101.21C70.7568 99.7855 71.215 98.1703 71.4539 96.8787C71.707 95.5111 71.802 94.0024 71.802 92.4352H66.2416ZM65.2207 97.9522L60.7149 94.6941C61.104 94.1558 61.5114 93.9724 61.5455 93.958C61.5608 93.9516 61.5053 93.9764 61.354 94.0105C61.2037 94.0444 60.9836 94.082 60.681 94.1105L61.2025 99.6464L61.724 105.182C64.2143 104.948 67.6114 104.135 69.7266 101.21L65.2207 97.9522ZM61.2025 99.6464L59.864 105.043C60.5139 105.204 60.8653 105.348 61.0093 105.419C61.0739 105.451 61.0526 105.447 60.9766 105.391C60.8998 105.334 60.7446 105.208 60.5664 104.993L64.8515 101.449L69.1366 97.9057C67.3253 95.7153 64.6093 94.7624 62.5409 94.2495L61.2025 99.6464ZM64.8515 101.449L60.5664 104.993C60.6337 105.074 60.6792 105.135 60.7077 105.176C60.7363 105.218 60.7441 105.233 60.7384 105.223C60.7303 105.208 60.6454 105.052 60.5805 104.767L66.0026 103.534L71.4248 102.302C71.0152 100.5 70.0618 99.0246 69.1366 97.9057L64.8515 101.449ZM66.0026 103.534L60.6157 104.912C60.5522 104.664 60.5543 104.564 60.5752 104.771C60.5912 104.928 60.6102 105.182 60.6273 105.555C60.6616 106.299 60.6812 107.345 60.6812 108.725H66.2416H71.802C71.802 107.267 71.7818 106.03 71.7364 105.043C71.6989 104.23 71.6301 103.097 71.3896 102.156L66.0026 103.534ZM66.2416 108.725H60.6812V118H66.2416H71.802V108.725H66.2416ZM66.2416 118V112.44H57.7489V118V123.56H66.2416V118ZM57.7489 118H63.3093V106.314H57.7489H52.1885V118H57.7489ZM57.7489 106.314H63.3093C63.3093 105.257 63.2685 104.228 63.1486 103.309C63.0621 102.646 62.8385 101.09 61.8964 99.699L57.2928 102.818L52.6893 105.936C52.4808 105.628 52.3531 105.362 52.2798 105.188C52.2046 105.011 52.1624 104.874 52.1414 104.8C52.1024 104.662 52.1054 104.627 52.1212 104.748C52.1354 104.857 52.1533 105.04 52.1669 105.314C52.1804 105.585 52.1885 105.916 52.1885 106.314H57.7489ZM57.2928 102.818L61.9652 99.8031C60.8012 97.9989 59.083 97.2734 58.0419 96.9718C56.9524 96.6561 55.8636 96.5838 54.9687 96.5838V102.144V107.705C55.3337 107.705 55.2621 107.744 54.9473 107.653C54.6809 107.576 53.4948 107.187 52.6204 105.832L57.2928 102.818ZM54.9687 102.144H49.4084V118H54.9687H60.5291V102.144H54.9687ZM54.9687 118V112.44H45.8245V118V123.56H54.9687V118ZM45.8245 118H51.3849V82.8349H45.8245H40.2641V118H45.8245ZM54.9687 88.8514H49.4084V96.6707H54.9687H60.5291V88.8514H54.9687ZM54.9687 96.6707V102.231C56.122 102.231 58.3425 102.148 60.2412 100.859L57.1191 96.258L53.9969 91.6569C54.3413 91.4232 54.6425 91.2915 54.8375 91.2198C55.0343 91.1475 55.1743 91.1173 55.2294 91.1068C55.3244 91.0885 55.2614 91.1103 54.9687 91.1103V96.6707ZM57.1191 96.258L60.2759 100.835C62.2747 99.4569 62.8318 97.3796 63.0123 96.589C63.25 95.5481 63.3093 94.4614 63.3093 93.4995H57.7489H52.1885C52.1885 94.087 52.1429 94.2348 52.1706 94.1133C52.1866 94.0433 52.257 93.7497 52.4633 93.3537C52.6683 92.9601 53.1123 92.2667 53.9622 91.6806L57.1191 96.258ZM57.7489 93.4995H63.3093V91.5664H57.7489H52.1885V93.4995H57.7489ZM57.7489 91.5664H63.3093C63.3093 90.7187 63.2374 89.7143 62.9552 88.6963C62.6778 87.6957 62.0854 86.2875 60.7594 85.1509L57.1408 89.3727L53.5221 93.5944C52.6016 92.8054 52.3133 91.9366 52.2386 91.6672C52.1591 91.3804 52.1885 91.2992 52.1885 91.5664H57.7489ZM57.1408 89.3727L60.8349 85.2168C58.7978 83.406 56.2068 83.291 54.9687 83.291V88.8514V94.4118C55.2267 94.4118 55.2059 94.4363 55.0069 94.3886C54.8328 94.3468 54.163 94.1653 53.4466 93.5286L57.1408 89.3727ZM69.8037 82.8349V77.2745H64.2433V82.8349H69.8037ZM85.0513 82.8349H90.6117V77.2745H85.0513V82.8349ZM85.0513 89.8722V95.4326H90.6117V89.8722H85.0513ZM78.9479 89.8722V84.3118H73.3875V89.8722H78.9479ZM78.9479 96.5404H73.3875V102.101H78.9479V96.5404ZM84.6604 96.5404H90.2208V90.98H84.6604V96.5404ZM84.6604 103.23V108.791H90.2208V103.23H84.6604ZM78.9479 103.23V97.6698H73.3875V103.23H78.9479ZM78.9479 110.963H73.3875V116.523H78.9479V110.963ZM85.6595 110.963H91.2199V105.402H85.6595V110.963ZM85.6595 118V123.56H91.2199V118H85.6595ZM69.8037 118H64.2433V123.56H69.8037V118ZM69.8037 82.8349V88.3953H85.0513V82.8349V77.2745H69.8037V82.8349ZM85.0513 82.8349H79.4909V89.8722H85.0513H90.6117V82.8349H85.0513ZM85.0513 89.8722V84.3118H78.9479V89.8722V95.4326H85.0513V89.8722ZM78.9479 89.8722H73.3875V96.5404H78.9479H84.5083V89.8722H78.9479ZM78.9479 96.5404V102.101H84.6604V96.5404V90.98H78.9479V96.5404ZM84.6604 96.5404H79.1V103.23H84.6604H90.2208V96.5404H84.6604ZM84.6604 103.23V97.6698H78.9479V103.23V108.791H84.6604V103.23ZM78.9479 103.23H73.3875V110.963H78.9479H84.5083V103.23H78.9479ZM78.9479 110.963V116.523H85.6595V110.963V105.402H78.9479V110.963ZM85.6595 110.963H80.0991V118H85.6595H91.2199V110.963H85.6595ZM85.6595 118V112.44H69.8037V118V123.56H85.6595V118ZM69.8037 118H75.3641V82.8349H69.8037H64.2433V118H69.8037ZM106.728 82.8349H112.289V77.2745H106.728V82.8349ZM106.728 89.8722V95.4326H112.289V89.8722H106.728ZM101.298 89.8722V84.3118H95.7377V89.8722H101.298ZM101.298 118V123.56H106.858V118H101.298ZM92.1539 118H86.5935V123.56H92.1539V118ZM92.1539 89.8722H97.7143V84.3118H92.1539V89.8722ZM86.7455 89.8722H81.1851V95.4326H86.7455V89.8722ZM86.7455 82.8349V77.2745H81.1851V82.8349H86.7455ZM106.728 82.8349H101.168V89.8722H106.728H112.289V82.8349H106.728ZM106.728 89.8722V84.3118H101.298V89.8722V95.4326H106.728V89.8722ZM101.298 89.8722H95.7377V118H101.298H106.858V89.8722H101.298ZM101.298 118V112.44H92.1539V118V123.56H101.298V118ZM92.1539 118H97.7143V89.8722H92.1539H86.5935V118H92.1539ZM92.1539 89.8722V84.3118H86.7455V89.8722V95.4326H92.1539V89.8722ZM86.7455 89.8722H92.3059V82.8349H86.7455H81.1851V89.8722H86.7455ZM86.7455 82.8349V88.3953H106.728V82.8349V77.2745H86.7455V82.8349ZM108.813 82.8349V77.2745H103.253V82.8349H108.813ZM124.039 83.3344L122.849 88.766L122.86 88.7684L124.039 83.3344ZM127.775 85.8974L123.209 89.0699L123.228 89.0975L123.247 89.1248L127.775 85.8974ZM124.191 99.6464L123.67 94.1105L122.853 105.043L124.191 99.6464ZM128.991 103.534L123.569 104.767L123.586 104.84L123.605 104.912L128.991 103.534ZM129.23 118V123.56H134.791V118H129.23ZM120.738 118H115.177V123.56H120.738V118ZM120.282 102.818L115.609 105.832L115.643 105.884L115.678 105.936L120.282 102.818ZM117.958 102.144V96.5838H112.397V102.144H117.958ZM117.958 118V123.56H123.518V118H117.958ZM108.813 118H103.253V123.56H108.813V118ZM117.958 88.8514V83.291H112.397V88.8514H117.958ZM117.958 96.6707H112.397V102.231H117.958V96.6707ZM120.108 96.258L123.23 100.859L123.247 100.847L123.265 100.835L120.108 96.258ZM120.13 89.3727L116.435 93.5286L116.473 93.5618L116.511 93.5944L120.13 89.3727ZM108.813 82.8349V88.3953H115.286V82.8349V77.2745H108.813V82.8349ZM115.286 82.8349V88.3953C119.669 88.3953 122.003 88.5806 122.849 88.766L124.039 83.3344L125.229 77.9028C123.035 77.4222 119.533 77.2745 115.286 77.2745V82.8349ZM124.039 83.3344L122.86 88.7684C122.913 88.7798 122.941 88.7908 122.952 88.7955C122.963 88.8001 122.97 88.8041 122.979 88.8101C122.989 88.8169 123.073 88.875 123.209 89.0699L127.775 85.8974L132.342 82.7249C130.642 80.2783 128.225 78.5528 125.218 77.9005L124.039 83.3344ZM127.775 85.8974L123.247 89.1248C123.182 89.0327 123.307 89.1671 123.439 89.7609C123.569 90.3454 123.67 91.2142 123.67 92.4352H129.23H134.791C134.791 89.0849 134.296 85.4656 132.303 82.6701L127.775 85.8974ZM129.23 92.4352H123.67C123.67 93.6048 123.595 94.384 123.508 94.8553C123.465 95.0831 123.432 95.1726 123.437 95.1614C123.439 95.1553 123.507 94.9662 123.704 94.6941L128.21 97.9522L132.715 101.21C133.746 99.7855 134.204 98.1703 134.443 96.8787C134.696 95.5111 134.791 94.0024 134.791 92.4352H129.23ZM128.21 97.9522L123.704 94.6941C124.093 94.1558 124.5 93.9724 124.534 93.958C124.55 93.9516 124.494 93.9764 124.343 94.0105C124.193 94.0444 123.972 94.082 123.67 94.1105L124.191 99.6464L124.713 105.182C127.203 104.948 130.6 104.135 132.715 101.21L128.21 97.9522ZM124.191 99.6464L122.853 105.043C123.503 105.204 123.854 105.348 123.998 105.419C124.063 105.451 124.041 105.447 123.965 105.391C123.889 105.334 123.733 105.208 123.555 104.993L127.84 101.449L132.125 97.9057C130.314 95.7153 127.598 94.7624 125.53 94.2495L124.191 99.6464ZM127.84 101.449L123.555 104.993C123.623 105.074 123.668 105.135 123.697 105.176C123.725 105.218 123.733 105.233 123.727 105.223C123.719 105.208 123.634 105.052 123.569 104.767L128.991 103.534L134.414 102.302C134.004 100.5 133.051 99.0246 132.125 97.9057L127.84 101.449ZM128.991 103.534L123.605 104.912C123.541 104.664 123.543 104.564 123.564 104.771C123.58 104.928 123.599 105.182 123.616 105.555C123.65 106.299 123.67 107.345 123.67 108.725H129.23H134.791C134.791 107.267 134.771 106.03 134.725 105.043C134.688 104.23 134.619 103.097 134.378 102.156L128.991 103.534ZM129.23 108.725H123.67V118H129.23H134.791V108.725H129.23ZM129.23 118V112.44H120.738V118V123.56H129.23V118ZM120.738 118H126.298V106.314H120.738H115.177V118H120.738ZM120.738 106.314H126.298C126.298 105.257 126.257 104.228 126.137 103.309C126.051 102.646 125.827 101.09 124.885 99.699L120.282 102.818L115.678 105.936C115.47 105.628 115.342 105.362 115.269 105.188C115.193 105.011 115.151 104.874 115.13 104.8C115.091 104.662 115.094 104.627 115.11 104.748C115.124 104.857 115.142 105.04 115.156 105.314C115.169 105.585 115.177 105.916 115.177 106.314H120.738ZM120.282 102.818L124.954 99.8031C123.79 97.9989 122.072 97.2734 121.031 96.9718C119.941 96.6561 118.852 96.5838 117.958 96.5838V102.144V107.705C118.322 107.705 118.251 107.744 117.936 107.653C117.67 107.576 116.484 107.187 115.609 105.832L120.282 102.818ZM117.958 102.144H112.397V118H117.958H123.518V102.144H117.958ZM117.958 118V112.44H108.813V118V123.56H117.958V118ZM108.813 118H114.374V82.8349H108.813H103.253V118H108.813ZM117.958 88.8514H112.397V96.6707H117.958H123.518V88.8514H117.958ZM117.958 96.6707V102.231C119.111 102.231 121.331 102.148 123.23 100.859L120.108 96.258L116.986 91.6569C117.33 91.4232 117.631 91.2915 117.826 91.2198C118.023 91.1475 118.163 91.1173 118.218 91.1068C118.313 91.0885 118.25 91.1103 117.958 91.1103V96.6707ZM120.108 96.258L123.265 100.835C125.264 99.4569 125.821 97.3796 126.001 96.589C126.239 95.5481 126.298 94.4614 126.298 93.4995H120.738H115.177C115.177 94.087 115.132 94.2348 115.159 94.1133C115.175 94.0433 115.246 93.7497 115.452 93.3537C115.657 92.9601 116.101 92.2667 116.951 91.6806L120.108 96.258ZM120.738 93.4995H126.298V91.5664H120.738H115.177V93.4995H120.738ZM120.738 91.5664H126.298C126.298 90.7187 126.226 89.7143 125.944 88.6963C125.667 87.6957 125.074 86.2875 123.748 85.1509L120.13 89.3727L116.511 93.5944C115.59 92.8054 115.302 91.9366 115.227 91.6672C115.148 91.3804 115.177 91.2992 115.177 91.5664H120.738ZM120.13 89.3727L123.824 85.2168C121.787 83.406 119.196 83.291 117.958 83.291V88.8514V94.4118C118.215 94.4118 118.195 94.4363 117.996 94.3886C117.822 94.3468 117.152 94.1653 116.435 93.5286L120.13 89.3727ZM153.427 110.941L147.904 110.291L147.902 110.315L147.899 110.339L153.427 110.941ZM151.863 114.959L147.364 111.692L147.351 111.71L147.338 111.727L151.863 114.959ZM138.027 117.826L135.885 122.957L135.915 122.97L135.945 122.982L138.027 117.826ZM132.771 89.9157L127.248 89.266L127.246 89.2898L127.243 89.3136L132.771 89.9157ZM134.335 85.8757L129.835 82.6084L129.823 82.6261L129.81 82.6438L134.335 85.8757ZM148.17 83.0303L146.028 88.1615L146.058 88.174L146.088 88.1862L148.17 83.0303ZM144.261 88.7428L139.054 90.6952L139.092 90.7949L139.133 90.8931L144.261 88.7428ZM142.045 88.6125L137.474 85.4474L137.46 85.4666L137.447 85.4858L142.045 88.6125ZM141.915 112.07L136.64 113.829L136.664 113.9L136.689 113.971L141.915 112.07ZM153.687 103.426H148.127C148.127 106.955 148.036 109.17 147.904 110.291L153.427 110.941L158.949 111.591C159.165 109.758 159.248 106.962 159.248 103.426H153.687ZM153.427 110.941L147.899 110.339C147.847 110.817 147.691 111.241 147.364 111.692L151.863 114.959L156.362 118.226C157.802 116.244 158.688 113.99 158.954 111.543L153.427 110.941ZM151.863 114.959L147.338 111.727C147.105 112.054 146.752 112.379 146.096 112.666L148.323 117.761L150.549 122.856C152.876 121.84 154.884 120.297 156.388 118.191L151.863 114.959ZM148.323 117.761L146.096 112.666C145.443 112.951 144.491 113.178 143.11 113.178V118.738V124.299C145.696 124.299 148.219 123.874 150.549 122.856L148.323 117.761ZM143.11 118.738V113.178C141.829 113.178 140.857 112.972 140.109 112.67L138.027 117.826L135.945 122.982C138.209 123.896 140.626 124.299 143.11 124.299V118.738ZM138.027 117.826L140.169 112.695C139.55 112.436 139.171 112.116 138.889 111.735L134.422 115.046L129.954 118.357C131.497 120.438 133.522 121.971 135.885 122.957L138.027 117.826ZM134.422 115.046L138.889 111.735C138.522 111.24 138.366 110.805 138.313 110.365L132.793 111.028L127.272 111.69C127.567 114.147 128.497 116.391 129.954 118.357L134.422 115.046ZM132.793 111.028L138.313 110.365C138.184 109.285 138.092 107.053 138.092 103.426H132.532H126.971C126.971 107.038 127.054 109.875 127.272 111.69L132.793 111.028ZM132.532 103.426H138.092V97.4092H132.532H126.971V103.426H132.532ZM132.532 97.4092H138.092C138.092 93.8768 138.175 91.6492 138.298 90.5177L132.771 89.9157L127.243 89.3136C127.048 91.1072 126.971 93.8752 126.971 97.4092H132.532ZM132.771 89.9157L138.293 90.5654C138.357 90.0244 138.533 89.5652 138.859 89.1076L134.335 85.8757L129.81 82.6438C128.399 84.6189 127.532 86.853 127.248 89.266L132.771 89.9157ZM134.335 85.8757L138.834 89.143C139.088 88.7932 139.461 88.4584 140.123 88.1691L137.897 83.0738L135.671 77.9785C133.35 78.9924 131.348 80.5255 129.835 82.6084L134.335 85.8757ZM137.897 83.0738L140.123 88.1691C140.776 87.8836 141.728 87.6568 143.11 87.6568V82.0964V76.536C140.523 76.536 138 76.9607 135.671 77.9785L137.897 83.0738ZM143.11 82.0964V87.6568C144.376 87.6568 145.318 87.8649 146.028 88.1615L148.17 83.0303L150.313 77.8992C148.04 76.9505 145.608 76.536 143.11 76.536V82.0964ZM148.17 83.0303L146.088 88.1862C146.704 88.4348 147.065 88.742 147.331 89.0998L151.798 85.7888L156.265 82.4779C154.706 80.3741 152.649 78.8422 150.253 77.8745L148.17 83.0303ZM151.798 85.7888L147.331 89.0998C147.698 89.595 147.853 90.03 147.906 90.4696L153.427 89.8071L158.948 89.1446C158.653 86.6881 157.722 84.4442 156.265 82.4779L151.798 85.7888ZM153.427 89.8071L147.906 90.4696C148.036 91.5501 148.127 93.7814 148.127 97.4092H153.687H159.248C159.248 93.7968 159.165 90.9601 158.948 89.1446L153.427 89.8071ZM153.687 97.4092H148.127V103.426H153.687H159.248V97.4092H153.687ZM144.543 91.8705H150.104C150.104 90.967 150.078 90.1141 150.01 89.3614C149.957 88.7707 149.837 87.6618 149.389 86.5924L144.261 88.7428L139.133 90.8931C139.044 90.6808 138.993 90.5128 138.967 90.4171C138.939 90.3171 138.926 90.2494 138.921 90.2251C138.913 90.1827 138.922 90.2181 138.935 90.3613C138.961 90.6513 138.983 91.1378 138.983 91.8705H144.543ZM144.261 88.7428L149.467 86.7904C149.013 85.5794 148.163 84.3612 146.809 83.5115C145.512 82.698 144.177 82.4873 143.153 82.4873V88.0477V93.6081C142.694 93.6081 141.826 93.5133 140.898 92.9315C139.913 92.3135 139.335 91.4428 139.054 90.6952L144.261 88.7428ZM143.153 88.0477V82.4873C140.945 82.4873 138.826 83.4947 137.474 85.4474L142.045 88.6125L146.617 91.7775C146.28 92.2647 145.762 92.7765 145.043 93.1427C144.334 93.5043 143.657 93.6081 143.153 93.6081V88.0477ZM142.045 88.6125L137.447 85.4858C136.854 86.358 136.605 87.2166 136.496 87.6458C136.366 88.1566 136.291 88.6527 136.243 89.0723C136.148 89.9134 136.116 90.8727 136.116 91.8705H141.676H147.237C147.237 91.4783 147.243 91.1517 147.255 90.8848C147.266 90.614 147.281 90.4327 147.293 90.3246C147.299 90.2726 147.303 90.2518 147.302 90.2571C147.302 90.2604 147.293 90.3097 147.272 90.3936C147.252 90.4731 147.208 90.6289 147.127 90.8324C147.051 91.0258 146.903 91.3571 146.643 91.7391L142.045 88.6125ZM141.676 91.8705H136.116V108.291H141.676H147.237V91.8705H141.676ZM141.676 108.291H136.116C136.116 109.367 136.136 110.323 136.187 111.118C136.225 111.721 136.305 112.824 136.64 113.829L141.915 112.07L147.19 110.312C147.31 110.672 147.331 110.895 147.319 110.808C147.314 110.77 147.3 110.649 147.285 110.416C147.256 109.952 147.237 109.257 147.237 108.291H141.676ZM141.915 112.07L136.689 113.971C137.157 115.256 138.05 116.503 139.439 117.353C140.749 118.153 142.087 118.348 143.088 118.348V112.787V107.227C143.481 107.227 144.319 107.302 145.238 107.863C146.237 108.474 146.847 109.363 147.141 110.17L141.915 112.07ZM143.088 112.787V118.348C144.206 118.348 145.652 118.096 147.014 117.155C148.415 116.188 149.2 114.855 149.585 113.636L144.283 111.962L138.98 110.287C139.191 109.619 139.691 108.699 140.693 108.006C141.657 107.34 142.592 107.227 143.088 107.227V112.787ZM144.283 111.962L149.585 113.636C149.89 112.668 149.981 111.616 150.026 110.934C150.081 110.108 150.104 109.127 150.104 108.03H144.543H138.983C138.983 109.004 138.962 109.714 138.93 110.198C138.914 110.44 138.898 110.577 138.89 110.635C138.877 110.726 138.891 110.569 138.98 110.287L144.283 111.962ZM144.543 108.03H150.104V91.8705H144.543H138.983V108.03H144.543Z" fill="#F6F6F6" mask="url(#path-1-outside-1_55_8)"/>
</g>
</g>
<defs>
<filter id="filter0_dn_55_8" x="-1.43878" y="34.833" width="202.39" height="131.169" filterUnits="userSpaceOnUse" color-interpolation-filters="sRGB">
<feFlood flood-opacity="0" result="BackgroundImageFix"/>
<feColorMatrix in="SourceAlpha" type="matrix" values="0 0 0 0 0 0 0 0 0 0 0 0 0 0 0 0 0 0 127 0" result="hardAlpha"/>
<feOffset/>
<feGaussianBlur stdDeviation="20.8515"/>
<feComposite in2="hardAlpha" operator="out"/>
<feColorMatrix type="matrix" values="0 0 0 0 1 0 0 0 0 1 0 0 0 0 1 0 0 0 0.25 0"/>
<feBlend mode="normal" in2="BackgroundImageFix" result="effect1_dropShadow_55_8"/>
<feBlend mode="normal" in="SourceGraphic" in2="BackgroundImageFix" result="shape"/>
<feTurbulence type="fractalNoise" baseFrequency="1.4387474060058594 1.4387474060058594" stitchTiles="stitch" numOctaves="3" result="noise" seed="6991" />
<feColorMatrix in="noise" type="luminanceToAlpha" result="alphaNoise" />
<feComponentTransfer in="alphaNoise" result="coloredNoise1">
<feFuncA type="discrete" tableValues="0 0 0 0 0 0 0 0 0 0 0 0 0 0 0 0 0 0 0 0 0 0 1 1 1 1 1 1 0 0 0 0 0 0 0 0 0 0 0 0 0 0 0 0 0 0 0 0 0 0 0 0 0 0 0 0 0 0 0 0 0 0 0 0 0 0 0 0 0 0 0 0 0 0 0 0 0 0 0 0 0 0 0 0 0 0 0 0 0 0 0 0 0 0 0 0 0 0 0 0 "/>
</feComponentTransfer>
<feComposite operator="in" in2="shape" in="coloredNoise1" result="noise1Clipped" />
<feFlood flood-color="rgba(0, 0, 0, 0.15)" result="color1Flood" />
<feComposite operator="in" in2="noise1Clipped" in="color1Flood" result="color1" />
<feMerge result="effect2_noise_55_8">
<feMergeNode in="shape" />
<feMergeNode in="color1" />
</feMerge>
<feBlend mode="normal" in="effect2_noise_55_8" in2="effect1_dropShadow_55_8" result="effect2_noise_55_8"/>
</filter>
<clipPath id="clip0_55_8">
<rect width="200" height="200" fill="white"/>
</clipPath>
</defs>
</svg>
