<svg width="300" height="300" viewBox="0 0 300 300" fill="none" xmlns="http://www.w3.org/2000/svg">
<path fill-rule="evenodd" clip-rule="evenodd" d="M133.366 121.699C134.796 126.385 135.56 128.892 134.856 130.878C134.046 133.163 131.292 134.758 125.37 138.189L125.37 138.189C121.456 140.457 116.159 143.526 109.125 148.125C109.125 148.125 87.0536 129.375 84.375 103.929C84.171 101.99 84.0913 99.9813 84.1229 97.9246C84.38 97.9625 84.6431 97.9821 84.9107 97.9821C87.8694 97.9821 90.2678 95.5837 90.2678 92.625L90.2679 92.625C93.2266 92.625 95.6251 90.2265 95.6251 87.2679C95.6251 86.1652 95.2919 85.1404 94.7208 84.2885C96.8074 83.5563 98.3036 81.5689 98.3036 79.2321C98.3036 77.6321 97.6022 76.1959 96.49 75.2143C97.6022 74.2327 98.3036 72.7965 98.3036 71.1964C98.3036 68.8597 96.8074 66.8723 94.7208 66.1401C95.2919 65.2882 95.6251 64.2634 95.6251 63.1607C95.6251 61.8119 95.1266 60.5796 94.3038 59.6378C99.7339 48.7613 106.281 40.9821 111.161 40.9821C128.926 40.9821 128.299 51.6688 127.303 68.6546C126.722 78.5603 126.016 90.6084 128.758 103.929C130.445 112.123 132.147 117.703 133.366 121.699Z" fill="#D9D9D9"/>
<path d="M125.867 101.25C119.102 84.3384 88.7017 124.018 93.724 132.054C99.0811 140.625 101.76 138.75 104.438 144.107L135.242 128.036C127.206 117.321 128.545 107.946 125.867 101.25Z" fill="url(#paint0_linear_1_50)" fill-opacity="0.2"/>
<path d="M171.242 103.929C163.797 140.089 156.054 125.357 190.875 148.125C190.875 148.125 212.946 129.375 215.625 103.929C218.304 78.4821 199.554 40.9821 188.839 40.9821C160.714 40.9821 178.687 67.7678 171.242 103.929Z" fill="#D9D9D9"/>
<path d="M174.133 101.25C180.898 84.3384 211.298 124.018 206.276 132.054C200.919 140.625 198.24 138.75 195.562 144.107L164.758 128.036C172.794 117.321 171.455 107.946 174.133 101.25Z" fill="url(#paint1_linear_1_50)" fill-opacity="0.2"/>
<path fill-rule="evenodd" clip-rule="evenodd" d="M169.913 254.789C208.069 249.98 225 230.052 225 194.332C225 152.911 191.421 121.339 150 121.339C108.579 121.339 75 152.911 75 194.332C75 230.12 91.9953 250.055 130.305 254.816C130.52 255.708 130.856 256.7 131.329 257.802C136.031 268.774 136.744 268.74 140.349 268.567C140.851 268.543 141.41 268.517 142.043 268.517C147.221 268.517 150.079 265.799 150.079 259.142C150.079 258.842 150.084 258.545 150.094 258.252C150.105 258.574 150.111 258.901 150.111 259.23C150.111 265.887 152.97 268.605 158.147 268.605C158.78 268.605 159.339 268.632 159.841 268.656C163.446 268.828 164.159 268.862 168.861 257.891C169.355 256.74 169.699 255.71 169.913 254.789Z" fill="#D9D9D9"/>
<path d="M134.807 192.321C137.486 208.393 132.129 233.839 110.7 225.804C95.4638 220.09 85.2539 208.393 89.2718 189.643C93.2896 170.893 98.4455 166.875 114.718 166.875C130.991 166.875 132.129 176.25 134.807 192.321Z" fill="#24212D" fill-opacity="0.13"/>
<path d="M134.165 195.907C136.758 210.86 131.573 234.534 110.835 227.058C96.0887 221.742 86.2077 210.86 90.0961 193.415C93.9846 175.97 98.9744 172.232 114.723 172.232C130.472 172.232 131.573 180.954 134.165 195.907Z" fill="#24212D"/>
<circle cx="115.179" cy="199.018" r="2.67857" fill="#FA3D97"/>
<path d="M164.882 192.321C162.203 208.393 167.561 233.839 188.989 225.804C204.226 220.09 214.436 208.393 210.418 189.643C206.4 170.893 201.244 166.875 184.971 166.875C168.699 166.875 167.561 176.25 164.882 192.321Z" fill="#24212D" fill-opacity="0.13"/>
<path d="M165.524 195.907C162.932 210.86 168.116 234.534 188.855 227.058C203.601 221.742 213.482 210.86 209.593 193.415C205.705 175.97 200.715 172.232 184.966 172.232C169.218 172.232 168.116 180.954 165.524 195.907Z" fill="#24212D"/>
<circle cx="184.822" cy="199.018" r="2.67857" fill="#FA3D97"/>
<path d="M160.74 228.482C160.74 234.399 155.944 237.857 150.026 237.857C144.109 237.857 139.312 234.399 139.312 228.482C139.312 222.565 144.109 221.786 150.026 221.786C155.944 221.786 160.74 222.565 160.74 228.482Z" fill="#24212D" fill-opacity="0.13"/>
<path d="M160.74 228.482C160.74 234.399 155.944 237.857 150.026 237.857C144.109 237.857 139.312 234.399 139.312 228.482C139.312 222.565 144.083 224.464 150 224.464C155.917 224.464 160.74 222.565 160.74 228.482Z" fill="#24212D"/>
<defs>
<linearGradient id="paint0_linear_1_50" x1="103.099" y1="121.339" x2="128.545" y2="142.768" gradientUnits="userSpaceOnUse">
<stop stop-color="#24212D" stop-opacity="0"/>
<stop offset="1" stop-color="#24212D"/>
</linearGradient>
<linearGradient id="paint1_linear_1_50" x1="196.901" y1="121.339" x2="171.455" y2="142.768" gradientUnits="userSpaceOnUse">
<stop stop-color="#24212D" stop-opacity="0"/>
<stop offset="1" stop-color="#24212D"/>
</linearGradient>
</defs>
</svg>
