<svg width="13" height="12" viewBox="0 0 13 12" fill="none" xmlns="http://www.w3.org/2000/svg">
<g clip-path="url(#clip0_1_161)">
<path d="M3.58939 1.51723C4.91931 2.52978 6.34979 4.58281 6.87499 5.68458C7.40023 4.58289 8.83063 2.52976 10.1606 1.51723C11.1202 0.786616 12.675 0.221308 12.675 2.02015C12.675 2.3794 12.4719 5.03806 12.3528 5.46968C11.9387 6.9703 10.4299 7.35304 9.08777 7.12139C11.4338 7.52632 12.0306 8.86759 10.7417 10.2089C8.29391 12.7562 7.22351 9.56973 6.94911 8.75324C6.89883 8.60356 6.8753 8.53353 6.87495 8.59307C6.87461 8.53353 6.85108 8.60356 6.8008 8.75324C6.52652 9.56973 5.45614 12.7563 3.0082 10.2089C1.71932 8.86759 2.3161 7.52624 4.66214 7.12139C3.31998 7.35304 1.81114 6.9703 1.39714 5.46968C1.27802 5.03802 1.07492 2.37936 1.07492 2.02015C1.07492 0.221308 2.62976 0.786616 3.58932 1.51723H3.58939Z" fill="#24292F"/>
</g>
<defs>
<clipPath id="clip0_1_161">
<rect width="12" height="12" fill="white" transform="translate(0.875)"/>
</clipPath>
</defs>
</svg>
