<svg width="13" height="12" viewBox="0 0 13 12" fill="none" xmlns="http://www.w3.org/2000/svg">
<g clip-path="url(#clip0_1_160)">
<path fill-rule="evenodd" clip-rule="evenodd" d="M6.62996 0C3.30937 0 0.625 2.70416 0.625 6.04958C0.625 8.72376 2.34497 10.9874 4.73103 11.7886C5.02935 11.8488 5.13862 11.6584 5.13862 11.4982C5.13862 11.358 5.12878 10.8773 5.12878 10.3764C3.45835 10.737 3.1105 9.65522 3.1105 9.65522C2.84205 8.9541 2.44429 8.7739 2.44429 8.7739C1.89755 8.40331 2.48411 8.40331 2.48411 8.40331C3.09058 8.44338 3.40881 9.02429 3.40881 9.02429C3.94559 9.94567 4.81055 9.68533 5.15853 9.52505C5.20819 9.13442 5.36737 8.864 5.53638 8.7138C4.20408 8.57355 2.80234 8.05275 2.80234 5.72902C2.80234 5.06797 3.0408 4.52714 3.41865 4.10652C3.35903 3.95631 3.1502 3.33522 3.47838 2.50393C3.47838 2.50393 3.98542 2.34365 5.12866 3.12491C5.61813 2.99248 6.1229 2.92512 6.62996 2.92455C7.137 2.92455 7.65386 2.99474 8.13114 3.12491C9.27451 2.34365 9.78155 2.50393 9.78155 2.50393C10.1097 3.33522 9.90077 3.95631 9.84116 4.10652C10.229 4.52714 10.4576 5.06797 10.4576 5.72902C10.4576 8.05275 9.05585 8.56347 7.7136 8.7138C7.93239 8.90407 8.12119 9.26459 8.12119 9.83553C8.12119 10.6468 8.11135 11.2979 8.11135 11.4981C8.11135 11.6584 8.22075 11.8488 8.51895 11.7887C10.905 10.9873 12.625 8.72376 12.625 6.04958C12.6348 2.70416 9.9406 0 6.62996 0Z" fill="#24292F"/>
</g>
<defs>
<clipPath id="clip0_1_160">
<rect width="12" height="12" fill="white" transform="translate(0.625)"/>
</clipPath>
</defs>
</svg>
