<svg width="13" height="12" viewBox="0 0 13 12" fill="none" xmlns="http://www.w3.org/2000/svg">
<g clip-path="url(#clip0_1_159)">
<path d="M6.375 1.08047C7.97813 1.08047 8.16797 1.0875 8.79844 1.11562C9.38438 1.14141 9.70078 1.23984 9.91172 1.32188C10.1906 1.42969 10.3922 1.56094 10.6008 1.76953C10.8117 1.98047 10.9406 2.17969 11.0484 2.45859C11.1305 2.66953 11.2289 2.98828 11.2547 3.57187C11.2828 4.20469 11.2898 4.39453 11.2898 5.99531C11.2898 7.59844 11.2828 7.78828 11.2547 8.41875C11.2289 9.00469 11.1305 9.32109 11.0484 9.53203C10.9406 9.81094 10.8094 10.0125 10.6008 10.2211C10.3898 10.432 10.1906 10.5609 9.91172 10.6688C9.70078 10.7508 9.38203 10.8492 8.79844 10.875C8.16563 10.9031 7.97578 10.9102 6.375 10.9102C4.77188 10.9102 4.58203 10.9031 3.95156 10.875C3.36563 10.8492 3.04922 10.7508 2.83828 10.6688C2.55938 10.5609 2.35781 10.4297 2.14922 10.2211C1.93828 10.0102 1.80938 9.81094 1.70156 9.53203C1.61953 9.32109 1.52109 9.00234 1.49531 8.41875C1.46719 7.78594 1.46016 7.59609 1.46016 5.99531C1.46016 4.39219 1.46719 4.20234 1.49531 3.57187C1.52109 2.98594 1.61953 2.66953 1.70156 2.45859C1.80938 2.17969 1.94063 1.97812 2.14922 1.76953C2.36016 1.55859 2.55938 1.42969 2.83828 1.32188C3.04922 1.23984 3.36797 1.14141 3.95156 1.11562C4.58203 1.0875 4.77188 1.08047 6.375 1.08047ZM6.375 0C4.74609 0 4.54219 0.00703125 3.90234 0.0351562C3.26484 0.0632813 2.82656 0.166406 2.44688 0.314062C2.05078 0.46875 1.71563 0.672656 1.38281 1.00781C1.04766 1.34062 0.84375 1.67578 0.689063 2.06953C0.541406 2.45156 0.438281 2.8875 0.410156 3.525C0.382031 4.16719 0.375 4.37109 0.375 6C0.375 7.62891 0.382031 7.83281 0.410156 8.47266C0.438281 9.11016 0.541406 9.54844 0.689063 9.92813C0.84375 10.3242 1.04766 10.6594 1.38281 10.9922C1.71563 11.325 2.05078 11.5312 2.44453 11.6836C2.82656 11.8313 3.2625 11.9344 3.9 11.9625C4.53984 11.9906 4.74375 11.9977 6.37266 11.9977C8.00156 11.9977 8.20547 11.9906 8.84531 11.9625C9.48281 11.9344 9.92109 11.8313 10.3008 11.6836C10.6945 11.5312 11.0297 11.325 11.3625 10.9922C11.6953 10.6594 11.9016 10.3242 12.0539 9.93047C12.2016 9.54844 12.3047 9.1125 12.3328 8.475C12.3609 7.83516 12.368 7.63125 12.368 6.00234C12.368 4.37344 12.3609 4.16953 12.3328 3.52969C12.3047 2.89219 12.2016 2.45391 12.0539 2.07422C11.9063 1.67578 11.7023 1.34062 11.3672 1.00781C11.0344 0.675 10.6992 0.46875 10.3055 0.316406C9.92344 0.16875 9.4875 0.065625 8.85 0.0375C8.20781 0.00703125 8.00391 0 6.375 0Z" fill="#24292F"/>
<path d="M6.375 2.91797C4.67344 2.91797 3.29297 4.29844 3.29297 6C3.29297 7.70156 4.67344 9.08203 6.375 9.08203C8.07656 9.08203 9.45703 7.70156 9.45703 6C9.45703 4.29844 8.07656 2.91797 6.375 2.91797ZM6.375 7.99922C5.27109 7.99922 4.37578 7.10391 4.37578 6C4.37578 4.89609 5.27109 4.00078 6.375 4.00078C7.47891 4.00078 8.37422 4.89609 8.37422 6C8.37422 7.10391 7.47891 7.99922 6.375 7.99922Z" fill="#24292F"/>
<path d="M10.2984 2.7961C10.2984 3.19454 9.975 3.51563 9.57891 3.51563C9.18047 3.51563 8.85938 3.1922 8.85938 2.7961C8.85938 2.39766 9.18281 2.07657 9.57891 2.07657C9.975 2.07657 10.2984 2.40001 10.2984 2.7961Z" fill="#24292F"/>
</g>
<defs>
<clipPath id="clip0_1_159">
<rect width="12" height="12" fill="white" transform="translate(0.375)"/>
</clipPath>
</defs>
</svg>
