<svg width="13" height="12" viewBox="0 0 13 12" fill="none" xmlns="http://www.w3.org/2000/svg">
<g clip-path="url(#clip0_2485_74)">
<path d="M11.4091 0H1.59091C0.988182 0 0.5 0.488182 0.5 1.09091V10.9091C0.5 11.5118 0.988182 12 1.59091 12H11.4091C12.0118 12 12.5 11.5118 12.5 10.9091V1.09091C12.5 0.488182 12.0118 0 11.4091 0ZM4.29309 9.81818H2.684V4.64073H4.29309V9.81818ZM3.47218 3.90055C2.95345 3.90055 2.534 3.48 2.534 2.96236C2.534 2.44473 2.954 2.02473 3.47218 2.02473C3.98927 2.02473 4.40982 2.44527 4.40982 2.96236C4.40982 3.48 3.98927 3.90055 3.47218 3.90055ZM10.3204 9.81818H8.71236V7.30036C8.71236 6.69982 8.70146 5.92745 7.87618 5.92745C7.03891 5.92745 6.91018 6.58146 6.91018 7.25673V9.81818H5.30218V4.64073H6.84582V5.34818H6.86764C7.08255 4.94127 7.60727 4.512 8.39 4.512C10.0193 4.512 10.3204 5.58436 10.3204 6.97855V9.81818Z" fill="#1A1A1A"/>
</g>
<defs>
<clipPath id="clip0_2485_74">
<rect width="13" height="12" fill="white"/>
</clipPath>
</defs>
</svg>
