<svg width="13" height="12" viewBox="0 0 13 12" fill="none" xmlns="http://www.w3.org/2000/svg">
<path d="M9.47106 5.56177C9.41938 5.53699 9.36687 5.51315 9.31369 5.49032C9.22106 3.78364 8.2885 2.80656 6.72262 2.79656C6.71552 2.79652 6.70847 2.79652 6.70138 2.79652C5.76477 2.79652 4.98582 3.19631 4.50638 3.92379L5.36756 4.51455C5.72572 3.97114 6.28782 3.8553 6.70179 3.8553C6.70657 3.8553 6.71137 3.8553 6.7161 3.85534C7.23169 3.85863 7.62075 4.00854 7.87256 4.30088C8.05581 4.51371 8.17837 4.80781 8.23906 5.17899C7.78194 5.10129 7.28756 5.07741 6.75906 5.10771C5.27029 5.19346 4.31319 6.06174 4.37748 7.26825C4.41009 7.88025 4.71498 8.40675 5.23594 8.75069C5.6764 9.04144 6.24369 9.18363 6.83327 9.15144C7.61187 9.10875 8.22269 8.81169 8.64881 8.2685C8.97244 7.856 9.17712 7.32144 9.2675 6.64787C9.63856 6.87181 9.91356 7.1665 10.0654 7.52075C10.3237 8.12294 10.3388 9.1125 9.53131 9.91925C8.82388 10.626 7.9735 10.9318 6.68834 10.9412C5.26276 10.9306 4.18461 10.4734 3.48363 9.58231C2.82722 8.74788 2.48798 7.54262 2.47532 6C2.48798 4.45736 2.82722 3.2521 3.48363 2.41767C4.18461 1.52656 5.26274 1.06938 6.68832 1.05878C8.12425 1.06946 9.22119 1.52884 9.949 2.42425C10.3059 2.86335 10.5749 3.41555 10.7523 4.05939L11.7615 3.79014C11.5465 2.99764 11.2082 2.31473 10.7478 1.74838C9.81475 0.600418 8.45013 0.0121968 6.69184 0H6.68481C4.9301 0.0121544 3.58076 0.602612 2.67427 1.75496C1.86762 2.7804 1.45152 4.20723 1.43754 5.99578L1.4375 6L1.43754 6.00422C1.45152 7.79275 1.86762 9.21963 2.67427 10.2451C3.58076 11.3974 4.9301 11.9879 6.68481 12H6.69184C8.25188 11.9892 9.3515 11.5808 10.2574 10.6757C11.4426 9.49163 11.4069 8.00744 11.0162 7.09631C10.736 6.44294 10.2017 5.91226 9.47106 5.56177ZM6.77753 8.09419C6.12503 8.13094 5.44715 7.83806 5.41372 7.21075C5.38895 6.74563 5.74474 6.22663 6.81757 6.1648C6.94044 6.15771 7.061 6.15425 7.17944 6.15425C7.56913 6.15425 7.93369 6.19211 8.26512 6.26456C8.1415 7.80844 7.41637 8.05913 6.77753 8.09419Z" fill="#24292F"/>
</svg>
