<svg width="500" height="500" viewBox="0 0 500 500" fill="none" xmlns="http://www.w3.org/2000/svg">
<rect x="104.23" y="103.23" width="290.541" height="291.541" rx="8.77047" fill="#F6F6F6"/>
<rect x="104.23" y="103.23" width="290.541" height="291.541" rx="8.77047" stroke="#F2F2F2" stroke-width="2.45907"/>
<g filter="url(#filter0_i_102_97)">
<rect x="113" y="112" width="100" height="24" rx="8" fill="#24292F"/>
</g>
<g filter="url(#filter1_d_102_97)">
<circle cx="125" cy="124" r="5" fill="#FFA927"/>
</g>
<rect x="114" y="147" width="271" height="170" rx="7" fill="#24292F" stroke="#030303" stroke-width="2"/>
<g filter="url(#filter2_d_102_97)">
<path d="M129.96 174.976C130.419 174.976 130.808 174.901 131.128 174.752C131.459 174.592 131.725 174.384 131.928 174.128C132.141 173.861 132.296 173.563 132.392 173.232C132.499 172.891 132.552 172.533 132.552 172.16V171.968H133.896V172.16C133.896 172.725 133.811 173.259 133.64 173.76C133.469 174.251 133.219 174.683 132.888 175.056C132.557 175.419 132.147 175.707 131.656 175.92C131.165 176.123 130.6 176.224 129.96 176.224C128.723 176.224 127.757 175.835 127.064 175.056C126.371 174.277 126.024 173.141 126.024 171.648V169.152C126.024 167.701 126.371 166.576 127.064 165.776C127.757 164.976 128.723 164.576 129.96 164.576C130.6 164.576 131.165 164.683 131.656 164.896C132.147 165.099 132.557 165.387 132.888 165.76C133.219 166.123 133.469 166.555 133.64 167.056C133.811 167.547 133.896 168.075 133.896 168.64V168.832H132.552V168.64C132.541 168.277 132.483 167.925 132.376 167.584C132.28 167.243 132.125 166.944 131.912 166.688C131.709 166.421 131.448 166.213 131.128 166.064C130.808 165.904 130.419 165.824 129.96 165.824C129.096 165.824 128.445 166.139 128.008 166.768C127.581 167.397 127.368 168.224 127.368 169.248V171.552C127.368 172.651 127.581 173.499 128.008 174.096C128.445 174.683 129.096 174.976 129.96 174.976ZM143.677 172.128C143.677 172.789 143.565 173.376 143.341 173.888C143.128 174.389 142.84 174.816 142.477 175.168C142.114 175.509 141.688 175.771 141.197 175.952C140.717 176.133 140.216 176.224 139.693 176.224C139.16 176.224 138.653 176.133 138.173 175.952C137.693 175.771 137.272 175.509 136.909 175.168C136.546 174.816 136.253 174.389 136.029 173.888C135.816 173.376 135.709 172.789 135.709 172.128V171.936C135.709 171.285 135.816 170.709 136.029 170.208C136.253 169.696 136.546 169.264 136.909 168.912C137.282 168.56 137.709 168.293 138.189 168.112C138.669 167.931 139.17 167.84 139.693 167.84C140.216 167.84 140.717 167.931 141.197 168.112C141.677 168.293 142.098 168.56 142.461 168.912C142.834 169.264 143.128 169.696 143.341 170.208C143.565 170.709 143.677 171.285 143.677 171.936V172.128ZM139.693 175.04C140.077 175.04 140.429 174.976 140.749 174.848C141.08 174.709 141.368 174.512 141.613 174.256C141.858 174 142.05 173.696 142.189 173.344C142.328 172.981 142.397 172.576 142.397 172.128V171.936C142.397 171.509 142.328 171.12 142.189 170.768C142.05 170.405 141.858 170.096 141.613 169.84C141.368 169.584 141.08 169.387 140.749 169.248C140.418 169.099 140.066 169.024 139.693 169.024C139.32 169.024 138.968 169.099 138.637 169.248C138.306 169.387 138.018 169.584 137.773 169.84C137.528 170.096 137.336 170.405 137.197 170.768C137.058 171.12 136.989 171.509 136.989 171.936V172.128C136.989 172.576 137.058 172.981 137.197 173.344C137.336 173.696 137.528 174 137.773 174.256C138.018 174.512 138.301 174.709 138.621 174.848C138.952 174.976 139.309 175.04 139.693 175.04ZM153.618 176H152.37V170.304C152.37 169.931 152.284 169.627 152.114 169.392C151.943 169.147 151.671 169.024 151.298 169.024C150.946 169.024 150.658 169.157 150.434 169.424C150.22 169.68 150.114 170.08 150.114 170.624V176H148.866V170.24C148.866 169.888 148.77 169.6 148.578 169.376C148.386 169.141 148.13 169.024 147.81 169.024C147.426 169.024 147.127 169.163 146.914 169.44C146.711 169.717 146.61 170.08 146.61 170.528V176H145.362V168.064H146.61V168.928H146.802C146.94 168.555 147.143 168.283 147.41 168.112C147.676 167.931 147.991 167.84 148.354 167.84C148.738 167.84 149.052 167.941 149.298 168.144C149.554 168.347 149.73 168.608 149.826 168.928H150.018C150.38 168.203 150.956 167.84 151.746 167.84C152.343 167.84 152.802 168.032 153.122 168.416C153.452 168.789 153.618 169.28 153.618 169.888V176ZM158.247 165.696C158.247 165.387 158.353 165.125 158.567 164.912C158.791 164.688 159.057 164.576 159.367 164.576C159.676 164.576 159.937 164.688 160.151 164.912C160.375 165.125 160.487 165.387 160.487 165.696C160.487 166.005 160.375 166.272 160.151 166.496C159.937 166.709 159.676 166.816 159.367 166.816C159.057 166.816 158.791 166.709 158.567 166.496C158.353 166.272 158.247 166.005 158.247 165.696ZM155.975 174.848H158.759V169.216H156.263V168.064H160.007V174.848H162.599V176H155.975V174.848ZM166.828 176H165.58V168.064H166.828V169.408H167.02C167.51 168.363 168.364 167.84 169.58 167.84C170.497 167.84 171.228 168.128 171.772 168.704C172.316 169.269 172.588 170.123 172.588 171.264V176H171.34V171.52C171.34 170.688 171.153 170.064 170.78 169.648C170.406 169.232 169.9 169.024 169.26 169.024C168.502 169.024 167.905 169.285 167.468 169.808C167.041 170.32 166.828 171.008 166.828 171.872V176ZM181.408 174.784H181.216C180.96 175.264 180.608 175.627 180.16 175.872C179.723 176.107 179.243 176.224 178.72 176.224C178.187 176.224 177.686 176.133 177.216 175.952C176.747 175.771 176.331 175.509 175.968 175.168C175.616 174.827 175.334 174.405 175.12 173.904C174.918 173.392 174.816 172.811 174.816 172.16V171.904C174.816 171.264 174.923 170.693 175.136 170.192C175.35 169.68 175.632 169.253 175.984 168.912C176.336 168.56 176.747 168.293 177.216 168.112C177.686 167.931 178.176 167.84 178.688 167.84C179.264 167.84 179.766 167.968 180.192 168.224C180.63 168.469 180.971 168.832 181.216 169.312H181.408V168.064H182.656V177.952C182.656 178.315 182.539 178.613 182.304 178.848C182.08 179.083 181.787 179.2 181.424 179.2H176.256V178.048H180.976C181.264 178.048 181.408 177.888 181.408 177.568V174.784ZM178.752 175.04C179.126 175.04 179.472 174.971 179.792 174.832C180.112 174.693 180.39 174.496 180.624 174.24C180.87 173.984 181.062 173.68 181.2 173.328C181.339 172.965 181.408 172.565 181.408 172.128V171.936C181.408 171.509 181.339 171.12 181.2 170.768C181.062 170.405 180.87 170.096 180.624 169.84C180.39 169.584 180.107 169.387 179.776 169.248C179.456 169.099 179.115 169.024 178.752 169.024C178.379 169.024 178.027 169.093 177.696 169.232C177.376 169.371 177.094 169.568 176.848 169.824C176.614 170.08 176.427 170.384 176.288 170.736C176.16 171.088 176.096 171.477 176.096 171.904V172.16C176.096 172.608 176.16 173.008 176.288 173.36C176.427 173.712 176.614 174.016 176.848 174.272C177.094 174.517 177.376 174.709 177.696 174.848C178.016 174.976 178.368 175.04 178.752 175.04ZM196.618 170.112C196.618 170.496 196.778 170.789 197.098 170.992C197.429 171.195 198.026 171.328 198.89 171.392C199.818 171.467 200.522 171.691 201.002 172.064C201.493 172.427 201.738 172.96 201.738 173.664V173.76C201.738 174.144 201.658 174.491 201.498 174.8C201.349 175.099 201.135 175.355 200.858 175.568C200.591 175.781 200.261 175.941 199.866 176.048C199.482 176.165 199.061 176.224 198.602 176.224C197.983 176.224 197.45 176.144 197.002 175.984C196.565 175.813 196.197 175.595 195.898 175.328C195.61 175.051 195.391 174.741 195.242 174.4C195.093 174.048 195.007 173.696 194.986 173.344L196.17 173.056C196.223 173.664 196.458 174.155 196.874 174.528C197.29 174.891 197.845 175.072 198.538 175.072C199.125 175.072 199.594 174.96 199.946 174.736C200.309 174.501 200.49 174.176 200.49 173.76C200.49 173.312 200.314 172.992 199.962 172.8C199.61 172.608 199.039 172.485 198.25 172.432C197.333 172.368 196.629 172.155 196.138 171.792C195.647 171.429 195.402 170.901 195.402 170.208V170.112C195.402 169.739 195.482 169.413 195.642 169.136C195.802 168.848 196.015 168.608 196.282 168.416C196.559 168.224 196.869 168.08 197.21 167.984C197.551 167.888 197.909 167.84 198.282 167.84C198.805 167.84 199.263 167.915 199.658 168.064C200.053 168.203 200.383 168.389 200.65 168.624C200.917 168.848 201.119 169.109 201.258 169.408C201.407 169.707 201.503 170.005 201.546 170.304L200.362 170.592C200.309 170.08 200.101 169.68 199.738 169.392C199.386 169.104 198.922 168.96 198.346 168.96C198.122 168.96 197.903 168.987 197.69 169.04C197.487 169.083 197.306 169.152 197.146 169.248C196.986 169.344 196.858 169.467 196.762 169.616C196.666 169.755 196.618 169.92 196.618 170.112ZM212.255 172.128C212.255 172.789 212.143 173.376 211.919 173.888C211.706 174.389 211.418 174.816 211.055 175.168C210.692 175.509 210.266 175.771 209.775 175.952C209.295 176.133 208.794 176.224 208.271 176.224C207.738 176.224 207.231 176.133 206.751 175.952C206.271 175.771 205.85 175.509 205.487 175.168C205.124 174.816 204.831 174.389 204.607 173.888C204.394 173.376 204.287 172.789 204.287 172.128V171.936C204.287 171.285 204.394 170.709 204.607 170.208C204.831 169.696 205.124 169.264 205.487 168.912C205.86 168.56 206.287 168.293 206.767 168.112C207.247 167.931 207.748 167.84 208.271 167.84C208.794 167.84 209.295 167.931 209.775 168.112C210.255 168.293 210.676 168.56 211.039 168.912C211.412 169.264 211.706 169.696 211.919 170.208C212.143 170.709 212.255 171.285 212.255 171.936V172.128ZM208.271 175.04C208.655 175.04 209.007 174.976 209.327 174.848C209.658 174.709 209.946 174.512 210.191 174.256C210.436 174 210.628 173.696 210.767 173.344C210.906 172.981 210.975 172.576 210.975 172.128V171.936C210.975 171.509 210.906 171.12 210.767 170.768C210.628 170.405 210.436 170.096 210.191 169.84C209.946 169.584 209.658 169.387 209.327 169.248C208.996 169.099 208.644 169.024 208.271 169.024C207.898 169.024 207.546 169.099 207.215 169.248C206.884 169.387 206.596 169.584 206.351 169.84C206.106 170.096 205.914 170.405 205.775 170.768C205.636 171.12 205.567 171.509 205.567 171.936V172.128C205.567 172.576 205.636 172.981 205.775 173.344C205.914 173.696 206.106 174 206.351 174.256C206.596 174.512 206.879 174.709 207.199 174.848C207.53 174.976 207.887 175.04 208.271 175.04ZM222.052 172.128C222.052 172.789 221.94 173.376 221.716 173.888C221.503 174.389 221.215 174.816 220.852 175.168C220.489 175.509 220.063 175.771 219.572 175.952C219.092 176.133 218.591 176.224 218.068 176.224C217.535 176.224 217.028 176.133 216.548 175.952C216.068 175.771 215.647 175.509 215.284 175.168C214.921 174.816 214.628 174.389 214.404 173.888C214.191 173.376 214.084 172.789 214.084 172.128V171.936C214.084 171.285 214.191 170.709 214.404 170.208C214.628 169.696 214.921 169.264 215.284 168.912C215.657 168.56 216.084 168.293 216.564 168.112C217.044 167.931 217.545 167.84 218.068 167.84C218.591 167.84 219.092 167.931 219.572 168.112C220.052 168.293 220.473 168.56 220.836 168.912C221.209 169.264 221.503 169.696 221.716 170.208C221.94 170.709 222.052 171.285 222.052 171.936V172.128ZM218.068 175.04C218.452 175.04 218.804 174.976 219.124 174.848C219.455 174.709 219.743 174.512 219.988 174.256C220.233 174 220.425 173.696 220.564 173.344C220.703 172.981 220.772 172.576 220.772 172.128V171.936C220.772 171.509 220.703 171.12 220.564 170.768C220.425 170.405 220.233 170.096 219.988 169.84C219.743 169.584 219.455 169.387 219.124 169.248C218.793 169.099 218.441 169.024 218.068 169.024C217.695 169.024 217.343 169.099 217.012 169.248C216.681 169.387 216.393 169.584 216.148 169.84C215.903 170.096 215.711 170.405 215.572 170.768C215.433 171.12 215.364 171.509 215.364 171.936V172.128C215.364 172.576 215.433 172.981 215.572 173.344C215.711 173.696 215.903 174 216.148 174.256C216.393 174.512 216.676 174.709 216.996 174.848C217.327 174.976 217.684 175.04 218.068 175.04ZM225.609 176H224.361V168.064H225.609V169.408H225.801C226.291 168.363 227.145 167.84 228.361 167.84C229.278 167.84 230.009 168.128 230.553 168.704C231.097 169.269 231.369 170.123 231.369 171.264V176H230.121V171.52C230.121 170.688 229.934 170.064 229.561 169.648C229.187 169.232 228.681 169.024 228.041 169.024C227.283 169.024 226.686 169.285 226.249 169.808C225.822 170.32 225.609 171.008 225.609 171.872V176ZM236.542 175.104C236.542 174.795 236.648 174.533 236.862 174.32C237.086 174.096 237.352 173.984 237.662 173.984C237.971 173.984 238.232 174.096 238.446 174.32C238.67 174.533 238.782 174.795 238.782 175.104C238.782 175.413 238.67 175.68 238.446 175.904C238.232 176.117 237.971 176.224 237.662 176.224C237.352 176.224 237.086 176.117 236.862 175.904C236.648 175.68 236.542 175.413 236.542 175.104ZM246.339 175.104C246.339 174.795 246.445 174.533 246.659 174.32C246.883 174.096 247.149 173.984 247.459 173.984C247.768 173.984 248.029 174.096 248.243 174.32C248.467 174.533 248.579 174.795 248.579 175.104C248.579 175.413 248.467 175.68 248.243 175.904C248.029 176.117 247.768 176.224 247.459 176.224C247.149 176.224 246.883 176.117 246.659 175.904C246.445 175.68 246.339 175.413 246.339 175.104ZM256.135 175.104C256.135 174.795 256.242 174.533 256.455 174.32C256.679 174.096 256.946 173.984 257.255 173.984C257.565 173.984 257.826 174.096 258.039 174.32C258.263 174.533 258.375 174.795 258.375 175.104C258.375 175.413 258.263 175.68 258.039 175.904C257.826 176.117 257.565 176.224 257.255 176.224C256.946 176.224 256.679 176.117 256.455 175.904C256.242 175.68 256.135 175.413 256.135 175.104Z" fill="white"/>
</g>
<g filter="url(#filter3_d_102_97)">
<rect x="263" y="161" width="8" height="18" fill="white"/>
</g>
<rect x="114" y="329" width="271" height="22" rx="7" fill="#D9D9D9" stroke="white" stroke-width="2"/>
<rect x="114" y="363" width="62" height="22" rx="7" fill="#E6E6E6" stroke="white" stroke-width="2"/>
<rect x="188" y="363" width="62" height="22" rx="7" fill="#E6E6E6" stroke="white" stroke-width="2"/>
<rect x="323" y="363" width="62" height="22" rx="7" fill="#24292F" stroke="#030303" stroke-width="2"/>
<defs>
<filter id="filter0_i_102_97" x="113" y="112" width="100" height="24" filterUnits="userSpaceOnUse" color-interpolation-filters="sRGB">
<feFlood flood-opacity="0" result="BackgroundImageFix"/>
<feBlend mode="normal" in="SourceGraphic" in2="BackgroundImageFix" result="shape"/>
<feColorMatrix in="SourceAlpha" type="matrix" values="0 0 0 0 0 0 0 0 0 0 0 0 0 0 0 0 0 0 127 0" result="hardAlpha"/>
<feMorphology radius="4" operator="erode" in="SourceAlpha" result="effect1_innerShadow_102_97"/>
<feOffset/>
<feGaussianBlur stdDeviation="2"/>
<feComposite in2="hardAlpha" operator="arithmetic" k2="-1" k3="1"/>
<feColorMatrix type="matrix" values="0 0 0 0 0 0 0 0 0 0 0 0 0 0 0 0 0 0 0.25 0"/>
<feBlend mode="normal" in2="shape" result="effect1_innerShadow_102_97"/>
</filter>
<filter id="filter1_d_102_97" x="115" y="114" width="20" height="20" filterUnits="userSpaceOnUse" color-interpolation-filters="sRGB">
<feFlood flood-opacity="0" result="BackgroundImageFix"/>
<feColorMatrix in="SourceAlpha" type="matrix" values="0 0 0 0 0 0 0 0 0 0 0 0 0 0 0 0 0 0 127 0" result="hardAlpha"/>
<feMorphology radius="3" operator="dilate" in="SourceAlpha" result="effect1_dropShadow_102_97"/>
<feOffset/>
<feGaussianBlur stdDeviation="1"/>
<feComposite in2="hardAlpha" operator="out"/>
<feColorMatrix type="matrix" values="0 0 0 0 1 0 0 0 0 0.662745 0 0 0 0 0.152941 0 0 0 0.2 0"/>
<feBlend mode="normal" in2="BackgroundImageFix" result="effect1_dropShadow_102_97"/>
<feBlend mode="normal" in="SourceGraphic" in2="effect1_dropShadow_102_97" result="shape"/>
</filter>
<filter id="filter2_d_102_97" x="115.024" y="153.576" width="154.352" height="36.624" filterUnits="userSpaceOnUse" color-interpolation-filters="sRGB">
<feFlood flood-opacity="0" result="BackgroundImageFix"/>
<feColorMatrix in="SourceAlpha" type="matrix" values="0 0 0 0 0 0 0 0 0 0 0 0 0 0 0 0 0 0 127 0" result="hardAlpha"/>
<feMorphology radius="3" operator="dilate" in="SourceAlpha" result="effect1_dropShadow_102_97"/>
<feOffset/>
<feGaussianBlur stdDeviation="4"/>
<feComposite in2="hardAlpha" operator="out"/>
<feColorMatrix type="matrix" values="0 0 0 0 1 0 0 0 0 1 0 0 0 0 1 0 0 0 0.2 0"/>
<feBlend mode="normal" in2="BackgroundImageFix" result="effect1_dropShadow_102_97"/>
<feBlend mode="normal" in="SourceGraphic" in2="effect1_dropShadow_102_97" result="shape"/>
</filter>
<filter id="filter3_d_102_97" x="252" y="150" width="30" height="40" filterUnits="userSpaceOnUse" color-interpolation-filters="sRGB">
<feFlood flood-opacity="0" result="BackgroundImageFix"/>
<feColorMatrix in="SourceAlpha" type="matrix" values="0 0 0 0 0 0 0 0 0 0 0 0 0 0 0 0 0 0 127 0" result="hardAlpha"/>
<feMorphology radius="3" operator="dilate" in="SourceAlpha" result="effect1_dropShadow_102_97"/>
<feOffset/>
<feGaussianBlur stdDeviation="4"/>
<feComposite in2="hardAlpha" operator="out"/>
<feColorMatrix type="matrix" values="0 0 0 0 1 0 0 0 0 1 0 0 0 0 1 0 0 0 0.2 0"/>
<feBlend mode="normal" in2="BackgroundImageFix" result="effect1_dropShadow_102_97"/>
<feBlend mode="normal" in="SourceGraphic" in2="effect1_dropShadow_102_97" result="shape"/>
</filter>
</defs>
</svg>
