<?xml version="1.0" encoding="utf-8"?>
<svg fill="none" height="800" viewBox="0 0 2400 800" width="2400" xmlns="http://www.w3.org/2000/svg">
<g clip-path="url(#clip0_1_2)">
<rect fill="#B0D47C" height="800" width="2400"/>
<path d="M228.878 376.01C185.016 395.676 51.4092 453.626 0 453.626C0.000169947 560.697 0 1020 0 1020H2400V583.212C2400 583.212 1803.06 527.675 1635.67 483.145C1468.28 438.616 1352.21 346.116 1312.36 351.058C1272.5 356 1257.51 387.279 1217.58 390.084C1188.17 392.15 1127.05 358.342 1096.87 340.376C1085.84 333.807 1072.22 333.204 1060.31 337.998C1040.99 345.769 1010.84 355.465 989.044 351.058C950.292 343.224 878.823 298.12 844.967 275.677C833.34 267.97 818.47 266.89 805.996 273.135L516.61 417.994C506.839 422.885 495.572 423.873 485.099 420.757L425.161 402.923C420.025 401.394 414.58 401.224 409.358 402.427L373.997 410.578C366.856 412.224 359.392 411.77 352.504 409.271L257.792 374.915C248.355 371.492 238.039 371.902 228.878 376.01Z" fill="#508B3C"/>
<path d="M1683.5 429C1901.83 422.21 2388.46 588.195 2423 588.195V1183H0V558.77C0 558.77 109.611 592.398 203 545.634C296.389 498.869 417.5 497.293 516 521.463C614.5 545.634 659.692 521.463 659.692 521.463L709.621 501.095C711.537 500.313 713.485 499.705 715.505 499.255C727.301 496.626 770.601 486.793 787.196 480.478C816.193 469.444 873.825 466.881 926.5 480.478C979.175 494.076 1038.97 564.159 1059.26 558.77C1075.72 554.399 1101.5 548.475 1110.64 546.394C1112.88 545.886 1115.15 545.634 1117.44 545.634H1130.26C1134.36 545.634 1138.21 545.042 1142.1 543.774C1186.46 529.313 1481.99 435.267 1683.5 429Z" fill="#407C34"/>
<path d="M2044.5 166.007C2050.17 165.84 2061.6 168.607 2062 181.007C2062.4 193.407 2055.17 197.84 2051.5 198.507L2058 216.507H2059V213.007H2063.5L2065.5 210.507H2070.5L2071 225.007C2073.17 230.507 2079.7 242.907 2088.5 248.507C2090.5 250.507 2092 255.507 2084.5 256.007C2078.5 256.407 2072.33 251.507 2070 249.007L2063.5 248.507L2062.5 250.007C2059.17 248.34 2052.4 243.507 2052 237.507H2049C2048.33 241.673 2047.1 250.906 2047.5 254.507C2048 259.007 2051 274.007 2051 284.507C2051 295.006 2050 308.506 2051.5 314.007C2052.7 318.406 2054 320.84 2054.5 321.507C2056.5 319.84 2060.7 315.406 2061.5 311.007C2064.3 312.206 2066 314.173 2066.5 315.007C2065.5 319.507 2061.7 329.107 2054.5 331.507C2054.5 335.506 2054.83 337.506 2055 338.007C2058 339.673 2063.9 346.607 2063.5 361.007H2077.5L2078.5 364.507V371.507L2073 376.007C2072.33 382.506 2071.9 396.306 2075.5 399.507C2081.5 394.007 2090 384.007 2098.5 385.007C2107 386.007 2131 396.007 2132 415.507C2138 411.907 2140.17 410.673 2140.5 410.507H2156.5L2158.5 412.507L2160.5 411.507C2162.33 406.006 2168.7 394.907 2179.5 394.507C2193 394.007 2203.5 411.507 2205.5 421.007C2211.5 416.607 2216 416.173 2217.5 416.507C2225.33 417.507 2242.4 424.007 2248 442.007C2251.2 444.007 2254.67 444.84 2256 445.007C2257.33 442.006 2262.4 436.007 2272 436.007C2281.6 436.007 2295 451.673 2300.5 459.507C2303.67 454.34 2313 444.607 2325 447.007C2340 450.007 2355 462.507 2371.5 484.007C2382 479.507 2382 478.507 2389.5 478.507H2400V803.007H1040.43C1044.01 805.576 1045.98 806.989 1046 807H0V668.355C12.1751 668.355 183.687 582.415 260.641 589.203C319.727 594.415 351.961 603.884 363.744 608C367.281 609.235 370.889 610.236 374.606 610.701L433.466 618.058C435.814 618.352 438.106 618.912 440.351 619.663C448.808 622.492 471.088 629.254 481.5 625.805C494.5 621.5 509.509 603.157 528.074 589.563C546.64 575.969 563.624 583.038 577.173 589.563C586.25 593.934 602.469 598.417 610.391 600.476C613.421 601.264 616.587 601.25 619.627 600.501C648.005 593.506 678.528 599.974 707.716 601.491C709.597 601.589 711.526 601.641 713.5 601.641C743.5 601.641 752.903 612.673 782.451 625.805C791.454 629.807 819.438 648.192 854 671.823V638.507C854 636.298 855.791 634.507 858 634.507H916C918.209 634.507 920 636.298 920 638.507V678.007C920 680.216 921.791 682.007 924 682.007H948C950.209 682.007 952 680.216 952 678.007V657.507C952 655.298 953.791 653.507 956 653.507H993C995.209 653.507 997 655.298 997 657.507V678.007C997 680.216 998.791 682.007 1001 682.007H1010C1012.21 682.007 1014 680.216 1014 678.007V610.507C1014 608.298 1015.79 606.507 1018 606.507H1042C1044.21 606.507 1046 608.298 1046 610.507V664.507C1046 666.716 1047.79 668.507 1050 668.507H1060.5C1062.71 668.507 1064.5 666.716 1064.5 664.507V638.507C1064.5 636.298 1066.29 634.507 1068.5 634.507H1104C1106.21 634.507 1108 636.298 1108 638.507V678.007C1108 680.216 1109.79 682.007 1112 682.007H1132C1134.21 682.007 1136 680.216 1136 678.007V672.507C1136 670.298 1137.79 668.507 1140 668.507H1181C1183.21 668.507 1185 670.298 1185 672.507V702.007C1185 704.216 1186.79 706.007 1189 706.007H1209.5C1211.71 706.007 1213.5 704.216 1213.5 702.007V672.507C1213.5 670.298 1215.29 668.507 1217.5 668.507H1264C1266.21 668.507 1268 670.298 1268 672.507V691.007C1268 693.216 1269.79 695.007 1272 695.007H1296C1298.21 695.007 1300 693.216 1300 691.007V672.507C1300 670.298 1301.79 668.507 1304 668.507H1345C1347.21 668.507 1349 670.298 1349 672.507V691.007C1349 693.216 1350.79 695.007 1353 695.007H1371C1373.21 695.007 1375 693.216 1375 691.007V686.007C1375 683.798 1376.79 682.007 1379 682.007H1408C1410.21 682.007 1412 683.798 1412 686.007V687.507C1412 689.716 1413.79 691.507 1416 691.507H1432.5C1434.71 691.507 1436.5 689.716 1436.5 687.507V658.007C1436.5 655.798 1438.29 654.007 1440.5 654.007H1474C1476.21 654.007 1478 655.798 1478 658.007V664.507C1478 666.716 1479.79 668.507 1482 668.507H1503.5C1505.71 668.507 1507.5 670.298 1507.5 672.507V678.007C1507.5 680.216 1509.29 682.007 1511.5 682.007H1517.5C1519.71 682.007 1521.5 680.216 1521.5 678.007V651.007C1521.5 648.798 1523.29 647.007 1525.5 647.007H1567.5L1659.17 571.256C1661.36 569.449 1663.94 568.184 1666.71 567.565L1697.35 560.716C1702.23 559.626 1706.43 556.558 1708.96 552.247L1720.29 532.91C1723.52 527.396 1729.43 524.007 1735.82 524.007H1743.2C1748.75 524.007 1754 521.442 1757.41 517.057L1771.09 499.456C1774.5 495.071 1779.75 492.507 1785.3 492.507H1804.37C1810.66 492.506 1816.49 489.224 1819.76 483.848L1827.96 470.342C1830.24 466.582 1833.82 463.788 1838.02 462.488L1852.5 458.007L1868.47 446.03C1872.33 443.136 1877.19 441.913 1881.96 442.633L1901 445.507L1912.5 431.507L1922.61 419.557C1929.49 411.426 1941.21 409.391 1950.43 414.728L1963 422.007H1985V412.007L1991.5 409.007L1997.5 374.507L1991.5 372.507V362.007H2005.5L2007 346.507L2014.5 335.507L2009 334.007L2007 326.507H2018C2015.83 307.673 2011.8 266.807 2013 254.007C2014.2 252.407 2015.17 251.34 2015.5 251.007V244.007C2016.5 243.673 2018.4 242.507 2018 240.507C2017.5 238.007 2015.5 238.506 2015.5 236.007C2015.5 233.506 2015.5 227.506 2016.5 225.007C2013 225.007 2004.5 228.507 1997 220.007C1992.6 213.207 1991.17 209.507 1991 208.507C1991 207.173 1990.7 204.106 1989.5 202.507C1988.43 201.076 1985.14 197.677 1982.44 195.304C1981.96 194.886 1981.97 194.134 1982.46 193.737L1985.87 191.009C1986.23 190.713 1986.76 190.717 1987.13 191.018L1998 200.007C1997.83 201.673 1998.8 205.206 2000 206.007C2001.5 207.007 2006 210.007 2007 208.507C2008 207.006 2008 203.507 2010.5 202.507C2013 201.507 2016.5 199.007 2019.5 200.007C2022.5 201.007 2023.5 205.007 2025 204.007C2026.5 203.006 2032.5 198.507 2032.5 196.507C2032.5 194.507 2034.32 192.306 2032.5 191.007C2029 188.506 2025.5 166.507 2044.5 166.007ZM2044 170.5C2039.36 170.5 2036.63 173.069 2035.12 176.221C2033.63 179.344 2033.33 183.062 2033.5 185.534L2034.49 185.577C2034.7 184.241 2035.43 182.209 2036.94 180.52C2038.43 178.847 2040.68 177.5 2044 177.5C2048.13 177.5 2050.49 179.502 2052.09 181.902C2052.9 183.114 2053.51 184.424 2054.04 185.64C2054.57 186.832 2055.05 187.981 2055.58 188.777L2056.31 189.866L2056.5 188.57C2056.76 186.728 2056.5 182.26 2054.77 178.24C2053.04 174.198 2049.77 170.5 2044 170.5Z" fill="#174F1F"/>
<path d="M528 88C533.523 88 538 92.4772 538 98V110H548C553.523 110 558 114.477 558 120V136H604C609.523 136 614 140.477 614 146V155C614 160.523 609.523 165 604 165H474C468.477 165 464 160.523 464 155H372C366.477 155 362 150.523 362 145V120C362 114.477 366.477 110 372 110H388V98C388 92.4772 392.477 88 398 88H528Z" fill="#D4E496"/>
<path d="M1550 200C1544.48 200 1540 204.477 1540 210V246H1530C1524.48 246 1520 250.477 1520 256V262H1474C1468.48 262 1464 266.477 1464 272V281C1464 286.523 1468.48 291 1474 291H1790C1795.52 291 1800 286.523 1800 281V256C1800 250.477 1795.52 246 1790 246H1653V210C1653 204.477 1648.52 200 1643 200H1550Z" fill="#D4E496"/>
</g>

</svg>